<svg width="684" height="683" viewBox="0 0 684 683" fill="none" xmlns="http://www.w3.org/2000/svg">
<g clip-path="url(#clip0_2035_3)">
<path d="M133.736 573.638C248.757 633.646 435.243 633.646 550.264 573.638C665.286 513.63 665.299 416.357 550.264 356.348C435.229 296.34 248.757 296.354 133.722 356.348C18.6869 416.343 18.7006 513.616 133.736 573.638Z" fill="#F5F5F5"/>
<path d="M279.072 521.525C310.071 536.278 360.318 536.278 391.248 521.525C422.178 506.772 422.247 482.867 391.248 468.114C360.249 453.362 310.016 453.362 279.072 468.114C248.128 482.867 248.018 506.786 279.072 521.525Z" fill="#EBEBEB"/>
<path d="M547.419 485.012L436.611 548.872C435.693 549.337 434.678 549.579 433.649 549.579C432.62 549.579 431.605 549.337 430.687 548.872L292.177 468.989C291.82 468.868 291.51 468.638 291.29 468.332C291.07 468.025 290.952 467.658 290.952 467.281C290.952 466.905 291.07 466.537 291.29 466.231C291.51 465.925 291.82 465.695 292.177 465.574L402.985 401.713C403.903 401.249 404.918 401.007 405.947 401.007C406.976 401.007 407.991 401.249 408.909 401.713L547.46 481.597C547.816 481.722 548.124 481.956 548.34 482.265C548.556 482.574 548.67 482.942 548.665 483.319C548.661 483.696 548.538 484.062 548.314 484.366C548.091 484.669 547.778 484.895 547.419 485.012Z" fill="#EBEBEB"/>
<path d="M578.254 133.964V163.292C578.254 163.292 566.188 168.933 544.054 168.933C521.919 168.933 509.854 163.278 509.854 163.278V134.592L532.945 69.3381C532.631 71.3871 533.835 73.4361 536.543 75.0479C538.525 76.2691 540.777 76.984 543.101 77.1293C545.425 77.2746 547.749 76.846 549.868 75.8812C550.463 75.6476 551.039 75.369 551.591 75.0479C554.464 73.3951 555.695 71.1275 555.134 68.9692L578.254 133.964Z" fill="#F5F5F5"/>
<path opacity="0.5" d="M578.254 133.964V163.292C578.254 163.292 566.188 168.933 544.054 168.933C521.919 168.933 509.854 163.278 509.854 163.278V134.592L532.945 69.3381C532.631 71.3871 533.835 73.4361 536.543 75.0479C538.525 76.2691 540.777 76.984 543.101 77.1293C545.425 77.2746 547.749 76.846 549.868 75.8812C550.463 75.6476 551.039 75.369 551.591 75.0479C554.464 73.3951 555.695 71.1275 555.134 68.9692L578.254 133.964Z" fill="white"/>
<path d="M575.6 339.547C573.617 342.155 571.104 344.315 568.226 345.885C554.847 353.603 533.165 353.603 519.799 345.885C516.916 344.316 514.399 342.156 512.412 339.547C510.868 337.497 509.956 335.043 509.785 332.484V347.715C510.032 352.578 513.356 357.4 519.799 361.116C533.165 368.82 554.847 368.82 568.226 361.116C574.902 357.264 578.254 352.209 578.254 347.155V331.938C578.203 334.692 577.273 337.357 575.6 339.547Z" fill="#F5F5F5"/>
<path d="M575.6 324.316C573.617 326.924 571.104 329.084 568.226 330.654C567.433 331.105 566.626 331.528 565.791 331.924C553.165 337.935 534.847 337.935 522.234 331.924C521.4 331.528 520.579 331.105 519.799 330.654C516.916 329.085 514.399 326.925 512.412 324.316C510.869 322.271 509.956 319.822 509.785 317.267V332.484C509.956 335.043 510.868 337.497 512.412 339.547C514.399 342.156 516.916 344.316 519.799 345.885C533.165 353.603 554.847 353.603 568.226 345.885C571.104 344.315 573.617 342.155 575.6 339.547C577.273 337.357 578.203 334.692 578.254 331.938V316.707C578.204 319.461 577.274 322.127 575.6 324.316Z" fill="#EBEBEB"/>
<path d="M575.6 309.085C573.615 311.694 571.103 313.859 568.226 315.437C567.433 315.887 566.626 316.297 565.791 316.707C553.165 322.717 534.847 322.717 522.234 316.707C521.4 316.297 520.579 315.887 519.799 315.437C516.919 313.858 514.402 311.695 512.412 309.085C510.869 307.04 509.956 304.591 509.785 302.036V317.267C509.956 319.822 510.869 322.271 512.412 324.316C514.399 326.925 516.916 329.085 519.799 330.654C520.579 331.105 521.4 331.528 522.234 331.924C534.847 337.935 553.165 337.935 565.791 331.924C566.626 331.528 567.433 331.105 568.226 330.654C571.104 329.084 573.617 326.924 575.6 324.316C577.274 322.127 578.204 319.461 578.254 316.707V301.476C578.206 304.23 577.276 306.897 575.6 309.085Z" fill="#F5F5F5"/>
<path d="M509.785 134.537V302.036C509.956 304.591 510.869 307.04 512.412 309.085C514.402 311.694 516.919 313.858 519.799 315.436C520.579 315.887 521.4 316.297 522.234 316.707C525.541 318.246 529.023 319.379 532.604 320.081L526.407 143.553L509.785 134.537Z" fill="#F5F5F5"/>
<path d="M561.619 143.553L555.408 320.081C558.988 319.379 562.47 318.246 565.777 316.707C566.612 316.297 567.419 315.887 568.212 315.436C571.089 313.858 573.601 311.694 575.586 309.085C577.262 306.897 578.192 304.23 578.24 301.476V133.963L561.619 143.553Z" fill="#F5F5F5"/>
<path d="M509.785 134.537V302.036C509.956 304.591 510.869 307.04 512.412 309.085C514.402 311.694 516.919 313.858 519.799 315.436C520.579 315.887 521.4 316.297 522.234 316.707C525.541 318.246 529.023 319.379 532.604 320.081L526.407 143.553L509.785 134.537Z" fill="#E0E0E0"/>
<path d="M561.619 143.553L555.408 320.081C558.988 319.379 562.47 318.246 565.777 316.707C566.612 316.297 567.419 315.887 568.212 315.436C571.089 313.858 573.601 311.694 575.586 309.085C577.262 306.897 578.192 304.23 578.24 301.476V133.963L561.619 143.553Z" fill="#E0E0E0"/>
<path d="M526.406 143.553V318.401C528.433 319.1 530.503 319.666 532.603 320.095C536.359 320.852 540.181 321.232 544.013 321.228C547.844 321.225 551.665 320.846 555.422 320.095C557.522 319.666 559.592 319.1 561.619 318.401V143.553H526.406Z" fill="#EBEBEB"/>
<path d="M551.537 74.9797C550.984 75.3008 550.408 75.5794 549.813 75.813C547.694 76.7777 545.37 77.2064 543.046 77.0611C540.722 76.9158 538.47 76.2009 536.489 74.9797C533.753 73.4225 532.576 71.3188 532.891 69.2698L540.77 47.2363C541.03 46.5919 541.478 46.041 542.057 45.6558C542.635 45.2706 543.317 45.0692 544.013 45.078C544.71 45.0683 545.394 45.2692 545.975 45.6543C546.556 46.0395 547.007 46.5909 547.268 47.2363L555.066 68.8737C555.6 71.032 554.409 73.3268 551.537 74.9797Z" fill="#E0E0E0"/>
<path d="M568.226 361.116C556.735 367.741 539.115 368.656 525.9 363.848C525.162 363.593 524.436 363.306 523.725 362.987L522.74 362.577C521.714 362.113 520.729 361.608 519.799 361.075C513.356 357.359 510.031 352.537 509.785 347.674V389.173C509.539 394.419 512.863 399.705 519.799 403.694C520.62 404.172 521.482 404.623 522.371 405.06C522.699 405.224 523.055 405.347 523.383 405.497C523.958 405.743 524.519 406.003 525.107 406.221C525.695 406.44 526.023 406.549 526.475 406.699C526.926 406.849 527.446 407.054 527.952 407.205C528.458 407.355 529.074 407.519 529.635 407.669C530.196 407.819 530.497 407.915 530.934 408.011C531.372 408.106 532.234 408.297 532.891 408.42C533.26 408.42 533.629 408.584 533.999 408.639C534.738 408.776 535.49 408.871 536.242 408.98L537.132 409.103C537.966 409.199 538.8 409.267 539.635 409.322H540.292C541.208 409.39 542.125 409.418 543.028 409.431H543.465C544.45 409.431 545.435 409.431 546.42 409.431H546.639C547.679 409.431 548.718 409.308 549.758 409.213C555.851 408.696 561.785 406.998 567.228 404.213C567.528 404.049 567.843 403.913 568.144 403.735C574.82 399.883 578.172 394.829 578.172 389.774V347.155C578.254 352.209 574.902 357.264 568.226 361.116Z" fill="#E0E0E0"/>
<path d="M155.241 385.322C151.287 384.324 130.179 372.331 128.031 370.869C125.883 369.408 121.643 366.389 121.643 361.184C121.643 356.581 122.121 313.169 125.897 292.201C127.137 285.679 129.701 279.478 133.43 273.981C137.159 268.484 141.974 263.807 147.58 260.237C160.713 252.109 173.914 246.222 185.036 250.839C196.158 255.456 206.308 263.939 210.686 274.184C215.063 284.429 218.059 304.946 218.374 312.883C218.689 320.819 218.374 348.03 218.374 350.448C218.374 352.865 217.936 356.007 204.899 364.108C191.862 372.208 173.859 381.866 168.291 384.365C164.15 386.046 159.583 386.381 155.241 385.322Z" fill="#37474F"/>
<path d="M151.985 265.878C150.781 266.561 147.306 264.854 146.786 263.993C146.267 263.133 146.13 255.688 148.729 251.576C151.328 247.465 167.539 239.883 171.547 240.443C173.048 240.688 174.484 241.235 175.766 242.052C177.048 242.87 178.149 243.94 179.003 245.197C179.495 246.249 180.042 253.175 179.003 254.595C177.963 256.016 174.256 253.83 173.928 253.229C173.599 252.628 175.145 247.56 172.56 246.508C170.179 245.552 158.88 250.347 154.283 254.199C152.286 255.879 152.382 260.046 152.477 262.108C152.573 264.171 152.587 265.523 151.985 265.878Z" fill="#455A64"/>
<path d="M148.729 314.754C151.055 292.201 155.241 279.033 177.334 269.212C199.427 259.39 208.004 267.75 211.137 275.277C215.241 285.822 218.073 305.219 218.374 312.883C218.689 320.819 218.374 348.03 218.374 350.448C218.374 352.865 217.936 356.007 204.899 364.108C191.862 372.208 173.859 381.866 168.291 384.365C164.154 386.06 159.588 386.409 155.241 385.363C154.368 385.097 153.517 384.764 152.696 384.365C145.815 375.541 146.595 335.353 148.729 314.754Z" fill="#455A64"/>
<path d="M200.234 260.401C194.461 257.027 184.995 254.8 171.096 260.988C146.253 272.039 139.946 285.876 137.443 310.164C136.992 314.617 136.321 319.917 136.075 325.613L134.023 324.37C134.31 318.223 134.912 312.964 135.391 308.211C138.127 283.745 145.473 270.222 169.208 259.663C182.354 253.816 190.987 254.581 196.705 257.464C197.933 258.379 199.111 259.36 200.234 260.401Z" fill="#263238"/>
<path d="M201.096 261.029C195.337 257.655 185.857 255.428 171.971 261.616C147.115 272.667 140.808 286.505 138.305 310.792C137.853 315.245 137.183 320.545 136.937 326.242L134.885 324.999C135.172 318.852 135.774 313.593 136.253 308.839C138.989 284.374 146.335 270.837 170.07 260.291C183.216 254.445 192.081 255.415 197.799 258.283C198.949 259.136 200.05 260.053 201.096 261.029Z" fill="#455A64"/>
<path d="M193.052 282.475L185.542 278.186C185.171 277.979 184.734 277.925 184.324 278.038C183.914 278.15 183.565 278.42 183.353 278.787L175.651 292.16C175.437 292.528 175.377 292.966 175.484 293.378C175.592 293.79 175.858 294.143 176.226 294.36L183.64 298.676C184.009 298.891 184.447 298.95 184.86 298.843C185.273 298.735 185.626 298.469 185.843 298.103L193.64 284.647C193.747 284.467 193.817 284.267 193.845 284.059C193.873 283.851 193.86 283.64 193.805 283.438C193.75 283.235 193.655 283.046 193.526 282.881C193.397 282.715 193.236 282.578 193.052 282.475Z" fill="#263238"/>
<path d="M184.995 297.146L192.396 284.402C192.449 284.31 192.483 284.209 192.497 284.105C192.511 284 192.503 283.894 192.475 283.792C192.447 283.69 192.399 283.595 192.334 283.512C192.268 283.429 192.187 283.36 192.095 283.309L185.255 279.429C185.069 279.325 184.85 279.299 184.646 279.355C184.441 279.411 184.266 279.546 184.16 279.73L176.841 292.42C176.737 292.605 176.711 292.824 176.767 293.028C176.823 293.233 176.958 293.407 177.142 293.513L183.859 297.433C183.952 297.492 184.055 297.531 184.164 297.548C184.272 297.565 184.382 297.56 184.489 297.533C184.595 297.507 184.695 297.458 184.782 297.392C184.869 297.325 184.941 297.242 184.995 297.146Z" fill="#455A64"/>
<path d="M186.582 291.054C186.779 290.935 186.946 290.772 187.069 290.577C187.192 290.383 187.269 290.163 187.293 289.934V283.828C187.293 283.432 186.978 283.309 186.582 283.527C186.384 283.646 186.217 283.809 186.094 284.004C185.971 284.198 185.894 284.418 185.87 284.647V290.753C185.87 291.149 186.185 291.272 186.582 291.054Z" fill="#37474F"/>
<path d="M182.614 293.348C182.811 293.226 182.977 293.06 183.101 292.863C183.224 292.667 183.301 292.445 183.326 292.215V286.122C183.326 285.726 182.997 285.59 182.614 285.822C182.416 285.939 182.248 286.102 182.124 286.297C182 286.491 181.925 286.712 181.903 286.942V293.048C181.944 293.43 182.218 293.567 182.614 293.348Z" fill="#37474F"/>
<path d="M158.962 333.823C158.962 333.823 162.683 336.883 165.364 348.412C168.045 359.941 169.659 374.462 166.732 376.21C163.804 377.959 159.577 374.298 158.524 373.041C156.362 370.459 156.896 343.057 158.962 333.823Z" fill="#263238"/>
<path d="M158.962 333.823C158.962 333.823 162.683 336.883 165.364 348.412C168.045 359.941 169.659 374.462 166.732 376.21L211.876 349.628C214.831 347.879 215.556 332.621 212.888 321.092C211.123 313.511 207.881 309.904 205.884 308.32C205.426 307.966 204.872 307.758 204.294 307.722C203.717 307.685 203.141 307.822 202.642 308.115L158.962 333.823Z" fill="#37474F"/>
<path d="M204.954 310.082C207.115 311.148 210.781 314.085 212.437 321.885C212.716 322.946 212.691 324.065 212.364 325.113C212.038 326.161 211.423 327.097 210.59 327.813C209.085 328.878 176.773 347.224 172.491 349.778C168.798 351.978 166.882 349.054 166.075 347.224C164.707 343.973 163.531 341.446 162.518 339.506C161.745 337.391 160.539 335.46 158.975 333.837L202.026 310.205C202.467 309.947 202.964 309.801 203.475 309.779C203.985 309.758 204.493 309.862 204.954 310.082Z" fill="#263238"/>
<path d="M137.47 327.512C138.096 329.861 138.503 332.261 138.688 334.684C138.688 335.176 138.018 335.435 137.826 335.435C136.262 335.121 134.814 334.384 133.64 333.304C133.859 331.239 134.234 329.193 134.762 327.185L137.47 327.512Z" fill="#263238"/>
<path d="M138.866 325.586C138.866 325.07 138.712 324.566 138.425 324.137C138.138 323.708 137.73 323.373 137.253 323.176C136.775 322.978 136.25 322.927 135.743 323.027C135.236 323.128 134.771 323.376 134.405 323.741C134.04 324.106 133.791 324.571 133.69 325.077C133.589 325.583 133.641 326.108 133.839 326.585C134.037 327.061 134.372 327.469 134.801 327.755C135.231 328.042 135.736 328.195 136.253 328.195C136.946 328.195 137.61 327.92 138.1 327.431C138.59 326.942 138.866 326.278 138.866 325.586Z" fill="#263238"/>
<path d="M171.547 246.385C174.406 246.112 177.101 246.385 177.785 249.24C178.469 252.095 178.223 254.704 177.785 255.059C176.337 254.876 174.985 254.235 173.928 253.229C173.599 252.614 175.145 247.56 172.56 246.508C172.243 246.403 171.908 246.361 171.575 246.385H171.547Z" fill="#263238"/>
<path d="M202.915 307.965C203.358 307.704 203.858 307.556 204.371 307.535C204.884 307.514 205.394 307.619 205.857 307.842C208.018 308.907 211.684 311.844 213.34 319.644C213.617 320.706 213.591 321.824 213.265 322.872C212.938 323.92 212.325 324.855 211.493 325.572C209.988 326.638 177.69 344.983 173.408 347.538C169.714 349.737 167.785 346.814 166.978 344.983C162.505 335.64 158.962 333.823 158.962 333.823L202.915 307.965Z" fill="#37474F"/>
<path d="M195.173 466.885L158.948 446.013C158.002 445.395 157.215 444.563 156.649 443.586C156.084 442.608 155.756 441.512 155.692 440.385V440.795C155.754 439.667 156.081 438.57 156.646 437.592C157.212 436.614 158.001 435.784 158.948 435.167L231.794 393.176C232.8 392.664 233.914 392.397 235.043 392.397C236.172 392.397 237.286 392.664 238.292 393.176L274.517 414.062C275.465 414.674 276.255 415.502 276.821 416.478C277.387 417.454 277.713 418.55 277.772 419.676V419.267C277.712 420.393 277.387 421.489 276.824 422.467C276.261 423.445 275.475 424.276 274.53 424.895L201.684 466.885C200.676 467.398 199.56 467.665 198.428 467.665C197.297 467.665 196.181 467.398 195.173 466.885Z" fill="#263238"/>
<path opacity="0.7" d="M195.173 466.885L158.948 446.013C158.002 445.395 157.215 444.563 156.649 443.586C156.084 442.608 155.756 441.512 155.692 440.385V440.795C155.754 439.667 156.081 438.57 156.646 437.592C157.212 436.614 158.001 435.784 158.948 435.167L231.794 393.176C232.8 392.664 233.914 392.397 235.043 392.397C236.172 392.397 237.286 392.664 238.292 393.176L274.517 414.062C275.465 414.674 276.255 415.502 276.821 416.478C277.387 417.454 277.713 418.55 277.772 419.676V419.267C277.712 420.393 277.387 421.489 276.824 422.467C276.261 423.445 275.475 424.276 274.53 424.895L201.684 466.885C200.676 467.398 199.56 467.665 198.428 467.665C197.297 467.665 196.181 467.398 195.173 466.885Z" fill="black"/>
<path d="M198.36 412.409L158.893 435.167C157.946 435.783 157.157 436.614 156.592 437.592C156.026 438.57 155.699 439.667 155.637 440.795V440.385C155.701 441.512 156.029 442.608 156.594 443.586C157.16 444.563 157.947 445.395 158.893 446.013L195.118 466.885C196.119 467.417 197.24 467.685 198.374 467.664L198.36 412.409Z" fill="#263238"/>
<path opacity="0.7" d="M198.36 412.409L158.893 435.167C157.946 435.783 157.157 436.614 156.592 437.592C156.026 438.57 155.699 439.667 155.637 440.795V440.385C155.701 441.512 156.029 442.608 156.594 443.586C157.16 444.563 157.947 445.395 158.893 446.013L195.118 466.885C196.119 467.417 197.24 467.685 198.374 467.664L198.36 412.409Z" fill="black"/>
<path d="M158.934 438.923L195.145 459.81C196.156 460.314 197.271 460.577 198.401 460.577C199.531 460.577 200.646 460.314 201.657 459.81L274.503 417.805C276.309 416.767 276.309 415.073 274.503 414.062L238.278 393.176C237.272 392.664 236.159 392.397 235.029 392.397C233.9 392.397 232.787 392.664 231.78 393.176L158.934 435.167C157.129 436.205 157.129 437.885 158.934 438.923Z" fill="#263238"/>
<path opacity="0.5" d="M158.934 438.923L195.145 459.81C196.156 460.314 197.271 460.577 198.401 460.577C199.531 460.577 200.646 460.314 201.657 459.81L274.503 417.805C276.309 416.767 276.309 415.073 274.503 414.062L238.278 393.176C237.272 392.664 236.159 392.397 235.029 392.397C233.9 392.397 232.787 392.664 231.78 393.176L158.934 435.167C157.129 436.205 157.129 437.885 158.934 438.923Z" fill="black"/>
<path d="M158.934 432.052V435.522L196.527 457.2C197.099 457.529 197.748 457.702 198.408 457.702C199.068 457.702 199.717 457.529 200.289 457.2L274.503 414.404V410.825L198.401 447.707L158.934 432.052Z" fill="#263238"/>
<path d="M195.159 452.938L158.934 432.052C157.985 431.437 157.196 430.607 156.63 429.629C156.064 428.65 155.738 427.552 155.678 426.424V419.745C155.738 418.616 156.064 417.518 156.63 416.54C157.196 415.562 157.985 414.732 158.934 414.117L231.78 372.112C232.786 371.6 233.9 371.333 235.029 371.333C236.159 371.333 237.272 371.6 238.278 372.112L274.503 392.998C275.452 393.613 276.242 394.444 276.807 395.422C277.373 396.4 277.699 397.498 277.759 398.626V405.32C277.69 406.423 277.359 407.495 276.793 408.445C276.227 409.395 275.442 410.197 274.503 410.784L201.657 452.897C200.654 453.416 199.542 453.69 198.413 453.697C197.283 453.704 196.168 453.444 195.159 452.938Z" fill="#263238"/>
<path opacity="0.6" d="M195.159 452.938L158.934 432.052C157.985 431.437 157.196 430.607 156.63 429.629C156.064 428.65 155.738 427.552 155.678 426.424V419.745C155.738 418.616 156.064 417.518 156.63 416.54C157.196 415.562 157.985 414.732 158.934 414.117L231.78 372.112C232.786 371.6 233.9 371.333 235.029 371.333C236.159 371.333 237.272 371.6 238.278 372.112L274.503 392.998C275.452 393.613 276.242 394.444 276.807 395.422C277.373 396.4 277.699 397.498 277.759 398.626V405.32C277.69 406.423 277.359 407.495 276.793 408.445C276.227 409.395 275.442 410.197 274.503 410.784L201.657 452.897C200.654 453.416 199.542 453.69 198.413 453.697C197.283 453.704 196.168 453.444 195.159 452.938Z" fill="black"/>
<path d="M198.36 391.359L158.893 414.116C157.944 414.731 157.155 415.562 156.589 416.54C156.023 417.518 155.697 418.616 155.637 419.744V426.424C155.697 427.552 156.023 428.65 156.589 429.628C157.155 430.607 157.944 431.437 158.893 432.052L195.118 452.938C196.114 453.472 197.23 453.74 198.36 453.717V391.359Z" fill="#263238"/>
<path opacity="0.7" d="M198.36 391.359L158.893 414.116C157.944 414.731 157.155 415.562 156.589 416.54C156.023 417.518 155.697 418.616 155.637 419.744V426.424C155.697 427.552 156.023 428.65 156.589 429.628C157.155 430.607 157.944 431.437 158.893 432.052L195.118 452.938C196.114 453.472 197.23 453.74 198.36 453.717V391.359Z" fill="black"/>
<path d="M158.934 417.859L195.145 438.746C196.154 439.258 197.269 439.525 198.401 439.525C199.533 439.525 200.648 439.258 201.657 438.746L274.503 396.755C276.309 395.717 276.309 394.023 274.503 392.998L238.278 372.112C237.272 371.6 236.159 371.333 235.029 371.333C233.9 371.333 232.787 371.6 231.78 372.112L158.934 414.117C157.129 415.155 157.129 416.835 158.934 417.859Z" fill="#263238"/>
<path opacity="0.5" d="M158.934 417.859L195.145 438.746C196.154 439.258 197.269 439.525 198.401 439.525C199.533 439.525 200.648 439.258 201.657 438.746L274.503 396.755C276.309 395.717 276.309 394.023 274.503 392.998L238.278 372.112C237.272 371.6 236.159 371.333 235.029 371.333C233.9 371.333 232.787 371.6 231.78 372.112L158.934 414.117C157.129 415.155 157.129 416.835 158.934 417.859Z" fill="black"/>
<path d="M209.454 401.263C205.446 403.585 205.446 407.314 209.454 409.609C211.708 410.74 214.196 411.33 216.719 411.33C219.241 411.33 221.729 410.74 223.983 409.609C227.991 407.314 227.991 403.585 223.983 401.263C221.731 400.125 219.242 399.532 216.719 399.532C214.195 399.532 211.706 400.125 209.454 401.263Z" fill="#263238"/>
<path d="M268.607 403.708C268.235 403.951 267.926 404.278 267.705 404.662C267.484 405.047 267.357 405.478 267.335 405.921C267.335 406.74 267.909 407.082 268.607 406.686C268.979 406.443 269.287 406.116 269.509 405.732C269.73 405.347 269.857 404.916 269.879 404.473C269.879 403.653 269.305 403.312 268.607 403.708Z" fill="#263238"/>
<path d="M268.607 408.612C268.235 408.854 267.926 409.181 267.705 409.566C267.484 409.95 267.357 410.382 267.335 410.825C267.335 411.644 267.909 411.986 268.607 411.59C268.983 411.352 269.296 411.026 269.518 410.641C269.739 410.255 269.863 409.821 269.879 409.377C269.879 408.557 269.305 408.216 268.607 408.612Z" fill="#263238"/>
<path d="M179.988 494.492C179.82 494.492 179.656 494.449 179.509 494.369L144.406 474.002C143.497 473.476 142.743 472.721 142.218 471.813C141.694 470.904 141.418 469.874 141.418 468.825C141.418 467.776 141.694 466.746 142.218 465.837C142.743 464.928 143.497 464.173 144.406 463.648L170.138 448.813C170.357 448.702 170.609 448.679 170.844 448.749C171.079 448.818 171.278 448.975 171.4 449.187C171.523 449.399 171.56 449.649 171.503 449.887C171.446 450.125 171.301 450.332 171.096 450.466L145.377 465.26C144.765 465.622 144.258 466.138 143.905 466.756C143.553 467.374 143.368 468.073 143.368 468.784C143.368 469.495 143.553 470.194 143.905 470.812C144.258 471.43 144.765 471.945 145.377 472.308L180.48 492.648C180.598 492.71 180.702 492.796 180.784 492.9C180.867 493.005 180.926 493.125 180.958 493.254C180.99 493.383 180.995 493.518 180.972 493.649C180.948 493.78 180.897 493.904 180.822 494.014C180.74 494.162 180.619 494.285 180.472 494.369C180.325 494.453 180.157 494.496 179.988 494.492Z" fill="#263238"/>
<path d="M223.955 474.822L216.349 444.332C216.241 443.912 216.099 443.501 215.925 443.103L218.141 442.789L213.312 440.057C212.299 439.507 211.155 439.243 210.003 439.294C208.851 439.344 207.734 439.707 206.773 440.344L175.104 458.648C172.93 460.07 171.122 461.983 169.826 464.233C168.531 466.483 167.785 469.006 167.648 471.598V508.261C167.648 511.184 168.36 513.192 169.824 513.889L174.365 516.512L173.271 513.616L173.517 513.52C178.729 511.034 180.617 506.499 182.177 502.005L188.209 484.588C189.769 480.094 193.681 474.944 196.883 473.073C200.084 471.202 204.653 473.073 207.006 477.171L210.043 482.471C210.97 484.153 212.367 485.53 214.065 486.433L218.689 489.165L217.512 487.334C218.474 487.336 219.418 487.082 220.248 486.596C223.408 484.711 225.104 479.466 223.955 474.822Z" fill="#263238"/>
<path opacity="0.7" d="M223.955 474.822L216.349 444.332C216.241 443.912 216.099 443.501 215.925 443.103L218.141 442.789L213.312 440.057C212.299 439.507 211.155 439.243 210.003 439.294C208.851 439.344 207.734 439.707 206.773 440.344L175.104 458.648C172.93 460.07 171.122 461.983 169.826 464.233C168.531 466.483 167.785 469.006 167.648 471.598V508.261C167.648 511.184 168.36 513.192 169.824 513.889L174.365 516.512L173.271 513.616L173.517 513.52C178.729 511.034 180.617 506.499 182.177 502.005L188.209 484.588C189.769 480.094 193.681 474.944 196.883 473.073C200.084 471.202 204.653 473.073 207.006 477.171L210.043 482.471C210.97 484.153 212.367 485.53 214.065 486.433L218.689 489.165L217.512 487.334C218.474 487.336 219.418 487.082 220.248 486.596C223.408 484.711 225.104 479.466 223.955 474.822Z" fill="black"/>
<path d="M215.925 443.103L218.141 442.789L213.312 440.057C212.299 439.507 211.155 439.243 210.003 439.294C208.851 439.344 207.734 439.707 206.773 440.344L175.104 458.648C173.335 459.749 171.824 461.216 170.672 462.951L178.209 467.541L216.76 445.794L216.39 444.332C216.268 443.911 216.113 443.5 215.925 443.103Z" fill="#263238"/>
<path opacity="0.5" d="M215.925 443.103L218.141 442.789L213.312 440.057C212.299 439.507 211.155 439.243 210.003 439.294C208.851 439.344 207.734 439.707 206.773 440.344L175.104 458.648C173.335 459.749 171.824 461.216 170.672 462.951L178.209 467.541L216.76 445.794L216.39 444.332C216.268 443.911 216.113 443.5 215.925 443.103Z" fill="black"/>
<path d="M225.077 489.438C221.835 491.309 217.279 489.438 214.913 485.34L211.89 480.04C209.523 475.942 205.05 474.07 201.753 475.942C198.456 477.813 194.639 482.949 193.08 487.457L187.06 504.86C185.501 509.354 183.599 513.889 178.387 516.375C174.447 518.26 172.546 515.883 172.546 511.13V474.439C172.687 471.849 173.437 469.328 174.734 467.081C176.032 464.833 177.841 462.923 180.015 461.503L211.739 443.13C212.594 442.533 213.587 442.163 214.625 442.055C215.662 441.948 216.71 442.107 217.669 442.518C218.628 442.928 219.467 443.576 220.105 444.401C220.742 445.225 221.159 446.198 221.315 447.228L228.921 477.731C230.043 482.294 228.333 487.566 225.077 489.438Z" fill="#263238"/>
<path opacity="0.6" d="M225.077 489.438C221.835 491.309 217.279 489.438 214.913 485.34L211.89 480.04C209.523 475.942 205.05 474.07 201.753 475.942C198.456 477.813 194.639 482.949 193.08 487.457L187.06 504.86C185.501 509.354 183.599 513.889 178.387 516.375C174.447 518.26 172.546 515.883 172.546 511.13V474.439C172.687 471.849 173.437 469.328 174.734 467.081C176.032 464.833 177.841 462.923 180.015 461.503L211.739 443.13C212.594 442.533 213.587 442.163 214.625 442.055C215.662 441.948 216.71 442.107 217.669 442.518C218.628 442.928 219.467 443.576 220.105 444.401C220.742 445.225 221.159 446.198 221.315 447.228L228.921 477.731C230.043 482.294 228.333 487.566 225.077 489.438Z" fill="black"/>
<path d="M212.779 453.689L213.572 458.184L217.088 455.943L217.868 460.437L214.366 462.691L215.159 467.186L211.657 469.426L210.864 464.932L207.361 467.186L206.568 462.678L210.07 460.437L209.277 455.943L212.779 453.689Z" fill="#263238"/>
<path d="M213.791 454.222L214.584 458.716L218.087 456.476L218.88 460.97L215.378 463.224L216.171 467.718L212.669 469.959L211.876 465.464L208.374 467.705L207.58 463.21L211.082 460.97L210.289 456.476L213.791 454.222Z" fill="#263238"/>
<path d="M186.239 469.604C186.333 470.237 186.256 470.883 186.015 471.477C185.775 472.07 185.38 472.588 184.871 472.978C183.9 473.592 182.943 473.087 182.724 471.844C182.626 471.211 182.701 470.563 182.942 469.969C183.183 469.375 183.58 468.857 184.092 468.47C185.049 467.855 186.048 468.361 186.239 469.604Z" fill="#263238"/>
<path d="M187.826 478.592C187.924 479.225 187.849 479.873 187.608 480.467C187.367 481.061 186.97 481.579 186.458 481.966C185.487 482.58 184.53 482.075 184.311 480.845C184.211 480.212 184.286 479.564 184.527 478.969C184.768 478.375 185.166 477.857 185.679 477.471C186.636 476.843 187.608 477.349 187.826 478.592Z" fill="#263238"/>
<path d="M190.535 471.844C190.635 472.477 190.56 473.126 190.319 473.72C190.078 474.314 189.68 474.832 189.167 475.218C188.196 475.846 187.238 475.341 187.019 474.098C186.92 473.464 186.994 472.816 187.235 472.222C187.476 471.627 187.874 471.11 188.387 470.724C189.359 470.109 190.316 470.601 190.535 471.844Z" fill="#263238"/>
<path d="M183.531 476.338C183.63 476.971 183.556 477.62 183.315 478.214C183.074 478.808 182.676 479.326 182.163 479.712C181.192 480.34 180.234 479.835 180.015 478.592C179.917 477.959 179.993 477.311 180.233 476.717C180.474 476.123 180.871 475.605 181.383 475.218C182.354 474.603 183.312 475.095 183.531 476.338Z" fill="#263238"/>
<path d="M186.308 469.644C186.406 470.278 186.331 470.926 186.09 471.52C185.849 472.114 185.452 472.632 184.94 473.018C183.969 473.633 183.011 473.141 182.792 471.898C182.693 471.265 182.767 470.616 183.008 470.022C183.249 469.428 183.647 468.91 184.16 468.524C185.131 467.896 186.048 468.401 186.308 469.644Z" fill="#263238"/>
<path d="M187.895 478.633C187.994 479.266 187.92 479.915 187.679 480.509C187.438 481.103 187.04 481.621 186.527 482.007C185.556 482.635 184.598 482.13 184.379 480.887C184.28 480.253 184.354 479.605 184.595 479.011C184.836 478.416 185.234 477.899 185.747 477.513C186.718 476.898 187.676 477.39 187.895 478.633Z" fill="#263238"/>
<path d="M190.603 471.898C190.7 472.529 190.624 473.175 190.384 473.767C190.143 474.358 189.746 474.874 189.235 475.259C188.278 475.887 187.307 475.382 187.088 474.138C186.993 473.505 187.069 472.858 187.31 472.265C187.551 471.671 187.946 471.153 188.456 470.764C189.427 470.15 190.385 470.655 190.603 471.898Z" fill="#263238"/>
<path d="M183.599 476.392C183.697 477.026 183.622 477.674 183.381 478.268C183.14 478.862 182.743 479.38 182.231 479.766C181.274 480.381 180.302 479.876 180.084 478.633C179.99 478 180.067 477.353 180.308 476.76C180.548 476.167 180.943 475.648 181.452 475.259C182.423 474.644 183.38 475.149 183.599 476.392Z" fill="#263238"/>
<path d="M186.376 469.686C186.476 470.319 186.401 470.968 186.16 471.562C185.919 472.156 185.521 472.674 185.008 473.06C184.051 473.688 183.079 473.183 182.861 471.94C182.766 471.306 182.842 470.659 183.083 470.066C183.324 469.473 183.719 468.954 184.229 468.566C185.2 467.951 186.157 468.443 186.376 469.686Z" fill="#263238"/>
<path d="M187.963 478.687C188.06 479.319 187.984 479.964 187.743 480.556C187.502 481.147 187.106 481.663 186.595 482.048C185.638 482.676 184.666 482.171 184.447 480.928C184.352 480.294 184.429 479.647 184.67 479.054C184.91 478.46 185.306 477.942 185.815 477.554C186.787 476.939 187.744 477.444 187.963 478.687Z" fill="#263238"/>
<path d="M190.686 471.939C190.781 472.572 190.704 473.219 190.463 473.813C190.223 474.406 189.827 474.924 189.318 475.313C188.346 475.928 187.389 475.423 187.17 474.193C187.07 473.56 187.145 472.911 187.386 472.317C187.627 471.723 188.025 471.205 188.538 470.819C189.495 470.191 190.467 470.696 190.686 471.939Z" fill="#263238"/>
<path d="M183.681 476.433C183.776 477.067 183.7 477.714 183.459 478.307C183.218 478.901 182.823 479.419 182.313 479.807C181.342 480.422 180.385 479.93 180.166 478.687C180.066 478.054 180.141 477.405 180.382 476.811C180.623 476.217 181.021 475.699 181.534 475.313C182.491 474.685 183.463 475.19 183.681 476.433Z" fill="#263238"/>
<path d="M186.458 469.74C186.553 470.373 186.477 471.02 186.236 471.614C185.995 472.207 185.6 472.725 185.09 473.114C184.119 473.729 183.162 473.223 182.943 471.98C182.846 471.349 182.922 470.703 183.163 470.112C183.403 469.52 183.8 469.005 184.311 468.62C185.268 467.992 186.24 468.538 186.458 469.74Z" fill="#263238"/>
<path d="M188.045 478.728C188.14 479.361 188.064 480.008 187.823 480.602C187.582 481.195 187.187 481.714 186.677 482.102C185.706 482.717 184.748 482.225 184.53 480.982C184.43 480.349 184.505 479.7 184.746 479.106C184.987 478.512 185.385 477.994 185.898 477.608C186.855 476.98 187.826 477.485 188.045 478.728Z" fill="#263238"/>
<path d="M190.754 471.981C190.853 472.614 190.779 473.262 190.538 473.857C190.297 474.451 189.899 474.969 189.386 475.355C188.415 475.983 187.457 475.478 187.238 474.235C187.14 473.601 187.216 472.953 187.456 472.359C187.697 471.765 188.094 471.247 188.606 470.86C189.577 470.246 190.535 470.738 190.754 471.981Z" fill="#263238"/>
<path d="M183.75 476.475C183.849 477.108 183.775 477.757 183.534 478.351C183.293 478.945 182.895 479.463 182.382 479.849C181.41 480.477 180.453 479.972 180.234 478.729C180.136 478.095 180.211 477.447 180.452 476.853C180.693 476.259 181.09 475.741 181.602 475.355C182.573 474.74 183.531 475.232 183.75 476.475Z" fill="#263238"/>
<path d="M186.527 469.781C186.625 470.414 186.549 471.062 186.309 471.656C186.068 472.25 185.67 472.768 185.159 473.155C184.188 473.77 183.23 473.278 183.011 472.035C182.911 471.402 182.986 470.753 183.227 470.159C183.468 469.564 183.866 469.047 184.379 468.661C185.35 468.033 186.308 468.538 186.527 469.781Z" fill="#263238"/>
<path d="M188.114 478.769C188.213 479.403 188.139 480.051 187.898 480.645C187.657 481.24 187.258 481.757 186.746 482.143C185.774 482.772 184.817 482.266 184.598 481.023C184.5 480.39 184.575 479.742 184.816 479.148C185.057 478.554 185.454 478.036 185.966 477.649C186.937 477.034 187.895 477.526 188.114 478.769Z" fill="#263238"/>
<path d="M190.822 472.035C190.919 472.668 190.843 473.316 190.602 473.909C190.361 474.503 189.965 475.021 189.454 475.409C188.483 476.024 187.525 475.518 187.307 474.275C187.209 473.642 187.284 472.994 187.525 472.4C187.766 471.806 188.163 471.288 188.675 470.901C189.646 470.286 190.603 470.792 190.822 472.035Z" fill="#263238"/>
<path d="M183.818 476.529C183.916 477.162 183.841 477.81 183.6 478.404C183.359 478.998 182.962 479.516 182.45 479.903C181.493 480.518 180.521 480.012 180.302 478.769C180.208 478.138 180.286 477.494 180.526 476.902C180.767 476.311 181.162 475.796 181.67 475.409C182.642 474.781 183.599 475.286 183.818 476.529Z" fill="#263238"/>
<path d="M186.595 469.822C186.695 470.456 186.62 471.104 186.379 471.698C186.138 472.293 185.74 472.81 185.227 473.196C184.27 473.825 183.298 473.319 183.079 472.076C182.984 471.443 183.061 470.796 183.302 470.202C183.542 469.609 183.938 469.091 184.447 468.702C185.419 468.087 186.376 468.538 186.595 469.822Z" fill="#263238"/>
<path d="M188.182 478.824C188.279 479.457 188.203 480.105 187.962 480.698C187.721 481.292 187.325 481.81 186.814 482.198C185.856 482.813 184.885 482.307 184.666 481.064C184.571 480.431 184.648 479.784 184.889 479.191C185.129 478.597 185.525 478.079 186.034 477.69C187.006 477.076 187.963 477.581 188.182 478.824Z" fill="#263238"/>
<path d="M190.891 472.076C190.989 472.709 190.913 473.357 190.673 473.951C190.432 474.545 190.034 475.063 189.523 475.45C188.565 476.065 187.594 475.573 187.375 474.33C187.278 473.697 187.355 473.049 187.595 472.455C187.836 471.862 188.232 471.344 188.743 470.956C189.714 470.327 190.672 470.833 190.891 472.076Z" fill="#263238"/>
<path d="M183.9 476.57C183.995 477.203 183.919 477.85 183.678 478.444C183.437 479.037 183.042 479.555 182.532 479.944C181.561 480.559 180.603 480.067 180.385 478.824C180.285 478.191 180.36 477.542 180.601 476.948C180.842 476.354 181.24 475.836 181.753 475.45C182.71 474.822 183.681 475.368 183.9 476.57Z" fill="#263238"/>
<path d="M186.677 469.904C186.772 470.537 186.696 471.184 186.455 471.778C186.214 472.371 185.819 472.889 185.309 473.278C184.338 473.893 183.38 473.387 183.162 472.158C183.062 471.525 183.137 470.876 183.378 470.282C183.619 469.687 184.017 469.17 184.53 468.784C185.487 468.128 186.458 468.634 186.677 469.904Z" fill="#263238"/>
<path d="M188.264 478.865C188.359 479.498 188.282 480.145 188.042 480.739C187.801 481.332 187.406 481.85 186.896 482.239C185.925 482.854 184.967 482.362 184.748 481.119C184.649 480.486 184.724 479.837 184.965 479.243C185.205 478.648 185.604 478.131 186.116 477.745C187.074 477.117 188.045 477.622 188.264 478.865Z" fill="#263238"/>
<path d="M190.973 472.117C191.069 472.75 190.993 473.398 190.753 473.991C190.512 474.585 190.115 475.103 189.605 475.491C188.634 476.119 187.676 475.614 187.457 474.371C187.359 473.737 187.434 473.089 187.675 472.495C187.916 471.901 188.313 471.384 188.825 470.997C189.783 470.382 190.754 470.874 190.973 472.117Z" fill="#263238"/>
<path d="M183.969 476.611C184.068 477.244 183.993 477.893 183.753 478.487C183.512 479.081 183.113 479.599 182.601 479.985C181.629 480.613 180.672 480.108 180.453 478.865C180.355 478.232 180.43 477.584 180.671 476.99C180.912 476.396 181.309 475.878 181.821 475.491C182.792 474.876 183.75 475.368 183.969 476.611Z" fill="#263238"/>
<path d="M186.746 469.904C186.845 470.537 186.771 471.186 186.53 471.78C186.289 472.374 185.891 472.892 185.378 473.278C184.406 473.906 183.449 473.401 183.23 472.158C183.13 471.524 183.205 470.876 183.446 470.282C183.687 469.687 184.085 469.17 184.598 468.784C185.569 468.169 186.527 468.675 186.746 469.904Z" fill="#263238"/>
<path d="M188.333 478.906C188.432 479.539 188.357 480.188 188.116 480.782C187.876 481.376 187.477 481.894 186.965 482.28C185.993 482.908 185.036 482.403 184.817 481.16C184.719 480.526 184.794 479.879 185.035 479.285C185.276 478.691 185.673 478.173 186.185 477.786C187.156 477.171 188.114 477.663 188.333 478.906Z" fill="#263238"/>
<path d="M191.041 472.172C191.139 472.805 191.064 473.453 190.823 474.047C190.582 474.641 190.185 475.159 189.673 475.546C188.702 476.16 187.744 475.655 187.525 474.412C187.428 473.781 187.504 473.135 187.745 472.543C187.986 471.952 188.383 471.436 188.893 471.052C189.865 470.423 190.822 470.929 191.041 472.172Z" fill="#263238"/>
<path d="M184.037 476.734C184.135 477.368 184.06 478.016 183.819 478.61C183.578 479.204 183.181 479.721 182.669 480.108C181.711 480.723 180.74 480.218 180.521 478.988C180.422 478.355 180.496 477.706 180.737 477.112C180.978 476.518 181.377 476 181.889 475.614C182.861 474.917 183.818 475.368 184.037 476.734Z" fill="#263238"/>
<path d="M186.814 469.972C186.911 470.604 186.835 471.249 186.594 471.841C186.353 472.433 185.957 472.948 185.446 473.333C184.475 473.961 183.517 473.456 183.298 472.213C183.2 471.579 183.276 470.931 183.517 470.337C183.757 469.743 184.155 469.226 184.666 468.839C185.638 468.224 186.595 468.729 186.814 469.972Z" fill="#263238"/>
<path d="M188.401 478.961C188.499 479.594 188.424 480.242 188.183 480.836C187.942 481.43 187.545 481.948 187.033 482.335C186.075 482.949 185.104 482.444 184.885 481.201C184.788 480.57 184.864 479.924 185.105 479.332C185.346 478.741 185.743 478.225 186.253 477.841C187.225 477.212 188.182 477.718 188.401 478.961Z" fill="#263238"/>
<path d="M191.11 472.213C191.208 472.846 191.132 473.494 190.891 474.088C190.651 474.682 190.253 475.2 189.742 475.587C188.784 476.201 187.813 475.71 187.594 474.467C187.497 473.833 187.573 473.186 187.814 472.592C188.055 471.998 188.451 471.48 188.962 471.093C189.933 470.464 190.891 470.97 191.11 472.213Z" fill="#263238"/>
<path d="M184.105 476.734C184.205 477.368 184.13 478.016 183.889 478.61C183.648 479.205 183.25 479.722 182.737 480.108C181.78 480.737 180.822 480.231 180.59 478.988C180.493 478.355 180.569 477.707 180.81 477.114C181.051 476.52 181.447 476.002 181.958 475.614C182.929 474.958 183.887 475.464 184.105 476.734Z" fill="#263238"/>
<path d="M186.882 470.013C186.981 470.647 186.905 471.295 186.664 471.889C186.423 472.483 186.026 473.001 185.514 473.387C184.557 474.002 183.586 473.497 183.367 472.267C183.27 471.634 183.346 470.987 183.587 470.393C183.828 469.799 184.224 469.281 184.735 468.893C185.706 468.265 186.664 468.77 186.882 470.013Z" fill="#263238"/>
<path d="M188.469 479.002C188.567 479.635 188.492 480.283 188.251 480.877C188.01 481.471 187.613 481.989 187.101 482.376C186.144 482.99 185.186 482.499 184.967 481.256C184.868 480.622 184.942 479.974 185.183 479.379C185.424 478.785 185.823 478.267 186.335 477.882C187.293 477.253 188.251 477.759 188.469 479.002Z" fill="#263238"/>
<path d="M191.192 472.254C191.288 472.887 191.212 473.534 190.971 474.128C190.731 474.722 190.334 475.24 189.824 475.628C188.852 476.256 187.895 475.751 187.676 474.507C187.578 473.874 187.653 473.226 187.894 472.632C188.135 472.038 188.532 471.52 189.044 471.133C190.002 470.519 190.973 471.024 191.192 472.254Z" fill="#263238"/>
<path d="M184.187 476.734C184.281 477.365 184.204 478.01 183.963 478.601C183.723 479.192 183.328 479.708 182.819 480.094C181.848 480.723 180.891 480.217 180.672 478.974C180.574 478.341 180.649 477.693 180.89 477.099C181.131 476.505 181.528 475.987 182.04 475.6C182.997 475.013 183.969 475.518 184.187 476.734Z" fill="#263238"/>
<path d="M186.965 470.054C187.061 470.688 186.985 471.335 186.744 471.929C186.504 472.523 186.107 473.041 185.597 473.428C184.625 474.057 183.668 473.551 183.449 472.308C183.351 471.675 183.426 471.027 183.667 470.433C183.908 469.839 184.305 469.321 184.817 468.934C185.774 468.32 186.746 468.811 186.965 470.054Z" fill="#263238"/>
<path d="M188.551 479.043C188.648 479.676 188.572 480.323 188.331 480.917C188.09 481.511 187.694 482.029 187.183 482.417C186.212 483.045 185.255 482.54 185.036 481.297C184.938 480.663 185.013 480.015 185.254 479.421C185.495 478.827 185.892 478.309 186.404 477.922C187.416 477.308 188.333 477.813 188.551 479.043Z" fill="#263238"/>
<path d="M191.26 472.308C191.358 472.942 191.283 473.59 191.042 474.184C190.801 474.778 190.404 475.296 189.892 475.682C188.921 476.297 187.963 475.792 187.744 474.562C187.645 473.929 187.72 473.28 187.96 472.686C188.201 472.092 188.6 471.574 189.112 471.188C190.152 470.56 191.041 471.065 191.26 472.308Z" fill="#263238"/>
<path d="M184.256 476.802C184.354 477.436 184.279 478.084 184.038 478.678C183.797 479.272 183.4 479.79 182.888 480.177C181.917 480.791 180.959 480.286 180.74 479.056C180.641 478.423 180.715 477.775 180.956 477.18C181.197 476.586 181.595 476.068 182.108 475.682C183.079 475.054 184.037 475.559 184.256 476.802Z" fill="#263238"/>
<path d="M187.033 470.109C187.13 470.742 187.053 471.39 186.813 471.984C186.572 472.577 186.176 473.095 185.665 473.483C184.694 474.098 183.736 473.592 183.517 472.349C183.419 471.716 183.495 471.068 183.735 470.474C183.976 469.88 184.374 469.362 184.885 468.975C185.856 468.361 186.814 468.866 187.033 470.109Z" fill="#263238"/>
<path d="M188.62 479.097C188.718 479.731 188.643 480.379 188.402 480.973C188.161 481.567 187.764 482.085 187.252 482.471C186.281 483.086 185.323 482.581 185.104 481.351C185.005 480.718 185.079 480.069 185.32 479.475C185.561 478.881 185.959 478.363 186.472 477.977C187.416 477.349 188.401 477.854 188.62 479.097Z" fill="#263238"/>
<path d="M191.329 472.349C191.428 472.983 191.353 473.631 191.112 474.226C190.871 474.82 190.473 475.338 189.961 475.723C189.003 476.352 188.032 475.846 187.813 474.603C187.716 473.97 187.792 473.323 188.033 472.729C188.274 472.135 188.67 471.617 189.181 471.229C190.152 470.601 191.11 471.106 191.329 472.349Z" fill="#263238"/>
<path d="M184.324 476.843C184.424 477.477 184.349 478.125 184.108 478.72C183.867 479.314 183.469 479.832 182.956 480.217C181.999 480.846 181.027 480.34 180.809 479.097C180.714 478.464 180.79 477.817 181.031 477.224C181.272 476.63 181.667 476.112 182.177 475.723C183.148 475.109 184.105 475.6 184.324 476.843Z" fill="#263238"/>
<path d="M212.779 453.689L213.791 454.222L210.289 456.476L209.277 455.943L212.779 453.689Z" fill="#263238"/>
<path d="M210.07 460.438L211.082 460.97L207.58 463.21L206.568 462.678L210.07 460.438Z" fill="#263238"/>
<path d="M214.584 458.716L214.393 457.665L217.088 455.943L218.087 456.476L214.584 458.716Z" fill="#263238"/>
<path d="M206.568 462.678L207.58 463.21L208.374 467.705L207.361 467.186L206.568 462.678Z" fill="#263238"/>
<path d="M211.657 469.426L212.669 469.959L211.876 465.464L211.055 465.997L211.657 469.426Z" fill="#263238"/>
<path d="M187.033 470.109C187.13 470.742 187.053 471.39 186.813 471.984C186.572 472.577 186.176 473.095 185.665 473.483C184.694 474.098 183.736 473.592 183.517 472.349C183.419 471.716 183.495 471.068 183.735 470.474C183.976 469.88 184.374 469.362 184.885 468.975C185.856 468.361 186.814 468.866 187.033 470.109Z" fill="#263238"/>
<path d="M188.62 479.097C188.718 479.731 188.643 480.379 188.402 480.973C188.161 481.567 187.764 482.085 187.252 482.471C186.281 483.086 185.323 482.581 185.104 481.351C185.005 480.718 185.079 480.069 185.32 479.475C185.561 478.881 185.959 478.363 186.472 477.977C187.416 477.349 188.401 477.854 188.62 479.097Z" fill="#263238"/>
<path d="M191.329 472.349C191.428 472.983 191.353 473.631 191.112 474.226C190.871 474.82 190.473 475.338 189.961 475.723C189.003 476.352 188.032 475.846 187.813 474.603C187.716 473.97 187.792 473.323 188.033 472.729C188.274 472.135 188.67 471.617 189.181 471.229C190.152 470.601 191.11 471.106 191.329 472.349Z" fill="#263238"/>
<path d="M184.324 476.843C184.424 477.477 184.349 478.125 184.108 478.72C183.867 479.314 183.469 479.832 182.956 480.217C181.999 480.846 181.027 480.34 180.809 479.097C180.714 478.464 180.79 477.817 181.031 477.224C181.272 476.63 181.667 476.112 182.177 475.723C183.148 475.109 184.105 475.6 184.324 476.843Z" fill="#263238"/>
<path d="M220.686 88.3665L205.98 96.8357C206.061 96.1923 206.102 95.5445 206.103 94.896V90.6477C206.103 83.0801 200.781 80.0066 194.229 83.8177C191.396 85.5508 188.977 87.882 187.142 90.6477C186.062 81.0857 178.592 77.5888 169.509 82.8206C159.687 88.4895 151.725 102.259 151.725 113.569V119.935C151.662 122.476 152.177 124.997 153.23 127.311L141.013 134.346C139.095 135.597 137.498 137.282 136.353 139.263C135.207 141.245 134.545 143.468 134.42 145.752C134.42 149.946 137.375 151.653 141.013 149.55L220.686 103.625C222.604 102.374 224.201 100.689 225.346 98.7078C226.492 96.7262 227.154 94.5032 227.28 92.2186C227.28 87.9704 224.352 86.2629 220.686 88.3665Z" fill="#F0F0F0"/>
<path d="M526.229 470.054L523.493 468.51L525.435 467.636C525.435 467.636 526.954 468.046 526.995 468.114C526.982 468.467 526.945 468.818 526.885 469.166L526.229 470.054Z" fill="#E0E0E0"/>
<path d="M526.229 470.054L523.493 468.51L525.435 467.636C525.435 467.636 526.954 468.046 526.995 468.114C526.982 468.467 526.945 468.818 526.885 469.166L526.229 470.054Z" fill="#263238"/>
<path opacity="0.1" d="M526.229 470.054L523.493 468.51L525.435 467.636C525.435 467.636 526.954 468.046 526.995 468.114C526.982 468.467 526.945 468.818 526.885 469.166L526.229 470.054Z" fill="white"/>
<path d="M424.422 521.266C425.635 521.879 426.975 522.199 428.334 522.199C429.694 522.199 431.034 521.879 432.247 521.266L519.99 470.724L388.662 394.993L385.598 393.23L297.855 443.772C295.707 445.016 295.707 447.051 297.855 448.28L424.422 521.266Z" fill="#263238"/>
<path opacity="0.8" d="M424.422 521.266C425.635 521.879 426.975 522.199 428.334 522.199C429.694 522.199 431.034 521.879 432.247 521.266L519.99 470.724L388.662 394.993L385.598 393.23L297.855 443.772C295.707 445.016 295.707 447.051 297.855 448.28L424.422 521.266Z" fill="white"/>
<path d="M457.377 425.7L487.979 443.281L507.788 431.861L530.784 445.166V461.708C530.784 463.716 528.527 466.571 527.706 466.106C526.188 466.473 524.712 466.995 523.301 467.664C521 468.97 518.864 470.548 516.94 472.363L446.625 431.834L457.377 425.7Z" fill="#E0E0E0"/>
<path d="M457.377 425.7L487.979 443.281L507.788 431.861L530.784 445.166V461.708C530.784 463.716 528.527 466.571 527.706 466.106C526.188 466.473 524.712 466.995 523.301 467.664C521 468.97 518.864 470.548 516.94 472.363L446.625 431.834L457.377 425.7Z" fill="#263238"/>
<path opacity="0.1" d="M457.377 425.7L487.979 443.281L507.788 431.861L530.784 445.166V461.708C530.784 463.716 528.527 466.571 527.706 466.106C526.188 466.473 524.712 466.995 523.301 467.664C521 468.97 518.864 470.548 516.94 472.363L446.625 431.834L457.377 425.7Z" fill="white"/>
<path d="M432.288 521.252L437.582 518.192L517.022 472.404C517.082 471.368 517.459 470.377 518.103 469.563C519.041 468.318 520.223 467.277 521.577 466.503C522.71 465.81 523.999 465.411 525.326 465.342C526.213 465.33 527.08 465.613 527.788 466.148C528.822 464.12 529.326 461.865 529.252 459.591H532.261C532.261 463.689 530.893 467.896 529.211 468.852L527.692 469.74C526.83 470.232 526.146 470.259 526.146 469.74V468.934C526.146 468.033 524.778 468.074 523.082 469.057C521.386 470.041 520.032 471.543 520.032 472.445V473.264C520.032 473.729 518.855 474.767 517.432 475.587L440.605 519.886L432.288 524.667C431.084 525.289 429.745 525.603 428.389 525.582V522.113C429.741 522.168 431.085 521.871 432.288 521.252Z" fill="#263238"/>
<path opacity="0.6" d="M432.288 521.252L437.582 518.192L517.022 472.404C517.082 471.368 517.459 470.377 518.103 469.563C519.041 468.318 520.223 467.277 521.577 466.503C522.71 465.81 523.999 465.411 525.326 465.342C526.213 465.33 527.08 465.613 527.788 466.148C528.822 464.12 529.326 461.865 529.252 459.591H532.261C532.261 463.689 530.893 467.896 529.211 468.852L527.692 469.74C526.83 470.232 526.146 470.259 526.146 469.74V468.934C526.146 468.033 524.778 468.074 523.082 469.057C521.386 470.041 520.032 471.543 520.032 472.445V473.264C520.032 473.729 518.855 474.767 517.432 475.587L440.605 519.886L432.288 524.667C431.084 525.289 429.745 525.603 428.389 525.582V522.113C429.741 522.168 431.085 521.871 432.288 521.252Z" fill="white"/>
<path d="M296.213 445.958V449.496C296.258 449.968 296.426 450.421 296.699 450.809C296.973 451.197 297.343 451.507 297.773 451.709L416.064 519.9L424.367 524.681C425.571 525.302 426.911 525.617 428.266 525.596V522.126C426.902 522.159 425.553 521.834 424.354 521.184L419.073 518.137L297.773 448.185C297.341 447.982 296.969 447.669 296.696 447.279C296.422 446.888 296.256 446.433 296.213 445.958Z" fill="#263238"/>
<path opacity="0.1" d="M296.213 445.958V449.496C296.258 449.968 296.426 450.421 296.699 450.809C296.973 451.197 297.343 451.507 297.773 451.709L416.064 519.9L424.367 524.681C425.571 525.302 426.911 525.617 428.266 525.596V522.126C426.902 522.159 425.553 521.834 424.354 521.184L419.073 518.137L297.773 448.185C297.341 447.982 296.969 447.669 296.696 447.279C296.422 446.888 296.256 446.433 296.213 445.958Z" fill="white"/>
<path d="M428.334 498.809V519.08C429.24 519.107 430.137 518.895 430.934 518.465L440.51 512.919L513.821 470.655V449.51L428.334 498.809Z" fill="white"/>
<path d="M300.03 427.367V442.953C300.078 443.855 300.338 444.734 300.79 445.517C301.241 446.3 301.871 446.966 302.629 447.461L416.173 512.892L425.749 518.438C426.547 518.866 427.443 519.078 428.348 519.053V500.953L300.03 427.367Z" fill="#F0F0F0"/>
<path d="M513.875 470.628C513.948 469.591 514.335 468.6 514.984 467.787C515.926 466.549 517.107 465.513 518.458 464.741C519.583 464.038 520.868 463.633 522.193 463.566C523.084 463.559 523.953 463.842 524.669 464.372V443.267L513.903 449.482L513.875 470.628Z" fill="#455A64"/>
<path d="M518.185 464.918C516.938 465.653 515.85 466.629 514.984 467.787C514.335 468.6 513.948 469.591 513.875 470.628V450.466H518.171L518.185 464.918Z" fill="#F5F5F5"/>
<path d="M388.635 370.186L519.963 445.917V447.679C519.963 448.649 521.331 449.045 523.014 448.034C524.696 447.023 526.078 445.849 526.078 444.169L526.242 442.502L392.411 365.35L391.877 365.036C391.737 365.283 391.658 365.559 391.645 365.842V366.662C391.672 367.673 390.318 369.243 388.635 370.186Z" fill="#263238"/>
<path opacity="0.6" d="M388.635 370.186L519.963 445.917V447.679C519.963 448.649 521.331 449.045 523.014 448.034C524.696 447.023 526.078 445.849 526.078 444.169L526.242 442.502L392.411 365.35L391.877 365.036C391.737 365.283 391.658 365.559 391.645 365.842V366.662C391.672 367.673 390.318 369.243 388.635 370.186Z" fill="white"/>
<path d="M432.288 496.554L518.089 447.078C519.17 446.518 520.168 446.053 520.592 446.272L520.032 445.958L388.704 370.227L387.171 369.339C386.483 369.143 385.761 369.097 385.053 369.203C384.345 369.309 383.668 369.565 383.067 369.953L297.937 419.048C295.789 420.291 295.789 422.312 297.937 423.555L424.531 496.554C425.735 497.157 427.063 497.47 428.41 497.47C429.756 497.47 431.084 497.157 432.288 496.554Z" fill="#263238"/>
<path opacity="0.8" d="M432.288 496.554L518.089 447.078C519.17 446.518 520.168 446.053 520.592 446.272L520.032 445.958L388.704 370.227L387.171 369.339C386.483 369.143 385.761 369.097 385.053 369.203C384.345 369.309 383.668 369.565 383.067 369.953L297.937 419.048C295.789 420.291 295.789 422.312 297.937 423.555L424.531 496.554C425.735 497.157 427.063 497.47 428.41 497.47C429.756 497.47 431.084 497.157 432.288 496.554Z" fill="white"/>
<path d="M391.905 365.077L392.438 365.391L526.27 442.584C526.337 442.442 526.435 442.316 526.557 442.215L527.008 441.956L527.98 441.409L529.17 440.713C529.401 440.559 529.677 440.489 529.953 440.514C530.229 440.539 530.489 440.657 530.688 440.849C530.745 440.887 530.796 440.933 530.839 440.986C531 441.15 531.134 441.339 531.235 441.546C531.381 441.783 531.5 442.035 531.591 442.297C531.696 442.578 531.783 442.866 531.851 443.158C531.933 443.499 531.988 443.827 532.056 444.182C532.093 444.385 532.116 444.591 532.125 444.797C532.125 444.961 532.125 445.111 532.125 445.302C532.125 445.494 532.125 446.067 532.125 446.463V442.707C531.983 441.473 531.556 440.288 530.877 439.248C530.198 438.207 529.286 437.338 528.212 436.71L401.604 363.711C400.561 363.096 399.39 362.731 398.182 362.643C396.974 362.556 395.762 362.748 394.641 363.206L393.04 364.135L392.356 364.517C392.158 364.66 392.002 364.854 391.905 365.077Z" fill="#263238"/>
<path opacity="0.8" d="M391.905 365.077L392.438 365.391L526.27 442.584C526.337 442.442 526.435 442.316 526.557 442.215L527.008 441.956L527.98 441.409L529.17 440.713C529.401 440.559 529.677 440.489 529.953 440.514C530.229 440.539 530.489 440.657 530.688 440.849C530.745 440.887 530.796 440.933 530.839 440.986C531 441.15 531.134 441.339 531.235 441.546C531.381 441.783 531.5 442.035 531.591 442.297C531.696 442.578 531.783 442.866 531.851 443.158C531.933 443.499 531.988 443.827 532.056 444.182C532.093 444.385 532.116 444.591 532.125 444.797C532.125 444.961 532.125 445.111 532.125 445.302C532.125 445.494 532.125 446.067 532.125 446.463V442.707C531.983 441.473 531.556 440.288 530.877 439.248C530.198 438.207 529.286 437.338 528.212 436.71L401.604 363.711C400.561 363.096 399.39 362.731 398.182 362.643C396.974 362.556 395.762 362.748 394.641 363.206L393.04 364.135L392.356 364.517C392.158 364.66 392.002 364.854 391.905 365.077Z" fill="white"/>
<path d="M432.288 496.568L437.596 493.495L498.622 458.334L518.103 447.105C519.471 446.286 520.62 445.999 520.688 446.422V447.297C520.688 448.28 522.056 448.28 523.739 447.297C524.363 447.026 524.909 446.604 525.33 446.07C525.75 445.536 526.031 444.906 526.146 444.237V443.281C526.126 443.067 526.157 442.852 526.235 442.653C526.314 442.454 526.438 442.276 526.598 442.133L527.049 441.874L528.021 441.327L529.211 440.631C529.442 440.477 529.718 440.407 529.994 440.432C530.27 440.457 530.53 440.575 530.729 440.767C530.786 440.805 530.837 440.851 530.88 440.904C530.981 441.01 531.069 441.13 531.14 441.259C531.198 441.318 531.244 441.388 531.276 441.464C531.422 441.701 531.541 441.953 531.632 442.215C531.737 442.496 531.824 442.784 531.892 443.076C531.974 443.417 532.029 443.745 532.097 444.1C532.134 444.303 532.157 444.509 532.166 444.715C532.166 444.879 532.166 445.029 532.166 445.22C532.166 445.412 532.166 445.985 532.166 446.381V459.55H529.156V446.381C529.156 446.067 529.156 445.753 529.156 445.453L529.074 444.701C529.08 444.679 529.08 444.655 529.074 444.633C528.8 447.023 526.516 449.154 524.532 450.275C523.431 450.969 522.167 451.364 520.866 451.422C519.863 451.435 518.889 451.08 518.13 450.425L517.856 450.575L517.337 450.889L440.51 495.189L432.288 500.024C431.103 500.629 429.788 500.934 428.458 500.912V497.443C429.787 497.471 431.103 497.17 432.288 496.568Z" fill="#263238"/>
<path opacity="0.6" d="M432.288 496.568L437.596 493.495L498.622 458.334L518.103 447.105C519.471 446.286 520.62 445.999 520.688 446.422V447.297C520.688 448.28 522.056 448.28 523.739 447.297C524.363 447.026 524.909 446.604 525.33 446.07C525.75 445.536 526.031 444.906 526.146 444.237V443.281C526.126 443.067 526.157 442.852 526.235 442.653C526.314 442.454 526.438 442.276 526.598 442.133L527.049 441.874L528.021 441.327L529.211 440.631C529.442 440.477 529.718 440.407 529.994 440.432C530.27 440.457 530.53 440.575 530.729 440.767C530.786 440.805 530.837 440.851 530.88 440.904C530.981 441.01 531.069 441.13 531.14 441.259C531.198 441.318 531.244 441.388 531.276 441.464C531.422 441.701 531.541 441.953 531.632 442.215C531.737 442.496 531.824 442.784 531.892 443.076C531.974 443.417 532.029 443.745 532.097 444.1C532.134 444.303 532.157 444.509 532.166 444.715C532.166 444.879 532.166 445.029 532.166 445.22C532.166 445.412 532.166 445.985 532.166 446.381V459.55H529.156V446.381C529.156 446.067 529.156 445.753 529.156 445.453L529.074 444.701C529.08 444.679 529.08 444.655 529.074 444.633C528.8 447.023 526.516 449.154 524.532 450.275C523.431 450.969 522.167 451.364 520.866 451.422C519.863 451.435 518.889 451.08 518.13 450.425L517.856 450.575L517.337 450.889L440.51 495.189L432.288 500.024C431.103 500.629 429.788 500.934 428.458 500.912V497.443C429.787 497.471 431.103 497.17 432.288 496.568Z" fill="white"/>
<path d="M296.213 421.261V424.826C296.256 425.301 296.422 425.756 296.696 426.147C296.969 426.537 297.341 426.85 297.773 427.053L416.064 495.243L424.367 500.038C425.571 500.66 426.911 500.974 428.266 500.953V497.484C426.904 497.513 425.557 497.193 424.354 496.555L419.073 493.508L297.773 423.556C297.331 423.347 296.954 423.024 296.679 422.62C296.405 422.217 296.244 421.747 296.213 421.261Z" fill="#263238"/>
<path opacity="0.1" d="M296.213 421.261V424.826C296.256 425.301 296.422 425.756 296.696 426.147C296.969 426.537 297.341 426.85 297.773 427.053L416.064 495.243L424.367 500.038C425.571 500.66 426.911 500.974 428.266 500.953V497.484C426.904 497.513 425.557 497.193 424.354 496.555L419.073 493.508L297.773 423.556C297.331 423.347 296.954 423.024 296.679 422.62C296.405 422.217 296.244 421.747 296.213 421.261Z" fill="white"/>
<path d="M382.958 369.954C383.559 369.565 384.236 369.309 384.943 369.203C385.651 369.097 386.373 369.144 387.062 369.339L388.594 370.227C390.277 369.243 391.631 367.673 391.631 366.703V365.883C391.644 365.6 391.724 365.324 391.864 365.077C391.971 364.855 392.136 364.666 392.342 364.531L393.026 364.148L394.627 363.219C395.748 362.762 396.96 362.569 398.168 362.657C399.376 362.745 400.547 363.11 401.59 363.725L528.198 436.724L528.335 436.806L438.991 488.318C438.184 488.729 437.291 488.943 436.385 488.943C435.479 488.943 434.586 488.729 433.779 488.318L306.35 414.13L382.958 369.954Z" fill="#263238"/>
<path d="M446.146 480.832L442.767 478.892C443.676 478.576 444.653 478.506 445.599 478.687C446.501 479.152 446.146 480.832 446.146 480.832Z" fill="#263238"/>
<path opacity="0.7" d="M446.146 480.832L442.767 478.892C443.676 478.576 444.653 478.506 445.599 478.687C446.501 479.152 446.146 480.832 446.146 480.832Z" fill="black"/>
<path d="M448.471 478.742C448.087 478.326 447.621 477.994 447.102 477.767C446.582 477.54 446.022 477.423 445.455 477.423C444.888 477.423 444.328 477.54 443.808 477.767C443.289 477.994 442.823 478.326 442.439 478.742C439.142 481.761 438.978 484.752 437.61 484.711C436.242 484.67 436.242 460.602 436.242 460.602L449.251 472.636L448.471 478.742Z" fill="#263238"/>
<path opacity="0.7" d="M448.471 478.742C448.087 478.326 447.621 477.994 447.102 477.767C446.582 477.54 446.022 477.423 445.455 477.423C444.888 477.423 444.328 477.54 443.808 477.767C443.289 477.994 442.823 478.326 442.439 478.742C439.142 481.761 438.978 484.752 437.61 484.711C436.242 484.67 436.242 460.602 436.242 460.602L449.251 472.636L448.471 478.742Z" fill="black"/>
<path d="M312.465 391.249L312.246 391.126L314.325 389.924L403.902 338.29L534.423 422.626C536.571 423.869 536.954 425.673 535.271 426.629L532.22 428.391L448.499 476.734L447.897 476.297L312.465 391.249Z" fill="#263238"/>
<path opacity="0.5" d="M312.465 391.249L312.246 391.126L314.325 389.924L403.902 338.29L534.423 422.626C536.571 423.869 536.954 425.673 535.271 426.629L532.22 428.391L448.499 476.734L447.897 476.297L312.465 391.249Z" fill="black"/>
<path d="M437.322 449.209L443.807 447.843V473.797C439.894 475.463 437.404 477.021 436.967 480.285L437.322 449.209Z" fill="#455A64"/>
<path d="M446.666 474.138L529.608 426.328C530.368 425.835 531 425.17 531.454 424.387C531.908 423.603 532.171 422.724 532.22 421.821V396.263L448.471 444.961C448.471 444.961 447.473 448.58 444.504 449.714C441.536 450.848 443.807 452.009 443.807 452.009V473.865C446.365 473.496 446.666 474.138 446.666 474.138Z" fill="#F0F0F0"/>
<path d="M439.019 448.321C439.88 447.829 440.564 447.802 440.564 448.321V449.127C440.564 450.028 441.932 449.987 443.629 449.004C445.325 448.02 446.693 446.518 446.693 445.616V444.797C446.693 444.332 447.856 443.294 449.279 442.474L314.339 365.268L312.246 366.47C311.956 366.778 311.774 367.171 311.726 367.59V368.41C311.726 369.311 310.358 370.828 308.676 371.798C306.993 372.767 305.611 372.822 305.611 371.92V371.101C305.611 370.636 304.927 370.677 304.079 371.169L439.019 448.321Z" fill="#263238"/>
<path opacity="0.6" d="M439.019 448.321C439.88 447.829 440.564 447.802 440.564 448.321V449.127C440.564 450.028 441.932 449.987 443.629 449.004C445.325 448.02 446.693 446.518 446.693 445.616V444.797C446.693 444.332 447.856 443.294 449.279 442.474L314.339 365.268L312.246 366.47C311.956 366.778 311.774 367.171 311.726 367.59V368.41C311.726 369.311 310.358 370.828 308.676 371.798C306.993 372.767 305.611 372.822 305.611 371.92V371.101C305.611 370.636 304.927 370.677 304.079 371.169L439.019 448.321Z" fill="black"/>
<path d="M312.465 366.538L312.246 366.415L314.325 365.213L403.902 313.579L534.423 388.845C536.571 390.088 536.954 391.878 535.271 392.848L532.22 394.596L448.471 444.96L312.465 366.538Z" fill="#263238"/>
<path opacity="0.5" d="M312.465 366.538L312.246 366.415L314.325 365.213L403.902 313.579L534.423 388.845C536.571 390.088 536.954 391.878 535.271 392.848L532.22 394.596L448.471 444.96L312.465 366.538Z" fill="black"/>
<path d="M305.584 370.268L440.496 448.048L435.776 451.736L301.37 374.257C301.698 373.26 302.323 372.388 303.162 371.757L305.584 370.268Z" fill="#263238"/>
<path opacity="0.5" d="M305.584 370.268L440.496 448.048L435.776 451.736L301.37 374.257C301.698 373.26 302.323 372.388 303.162 371.757L305.584 370.268Z" fill="black"/>
<path d="M301.822 409.021C301.739 408.97 301.661 408.911 301.589 408.844C301.527 408.813 301.475 408.766 301.439 408.707C301.328 408.6 301.236 408.475 301.165 408.338C301.105 408.287 301.058 408.221 301.028 408.147C300.882 407.913 300.767 407.66 300.686 407.396C300.573 407.112 300.481 406.82 300.413 406.522C300.331 406.194 300.276 405.866 300.221 405.511C300.174 405.309 300.146 405.103 300.139 404.896V404.391C300.139 404.022 300.139 403.626 300.139 403.23V380.977C300.115 378.641 300.542 376.322 301.398 374.147L435.804 451.627L436.365 486.487L301.972 408.98L301.822 409.021Z" fill="#263238"/>
<path opacity="0.7" d="M301.822 409.021C301.739 408.97 301.661 408.911 301.589 408.844C301.527 408.813 301.475 408.766 301.439 408.707C301.328 408.6 301.236 408.475 301.165 408.338C301.105 408.287 301.058 408.221 301.028 408.147C300.882 407.913 300.767 407.66 300.686 407.396C300.573 407.112 300.481 406.82 300.413 406.522C300.331 406.194 300.276 405.866 300.221 405.511C300.174 405.309 300.146 405.103 300.139 404.896V404.391C300.139 404.022 300.139 403.626 300.139 403.23V380.977C300.115 378.641 300.542 376.322 301.398 374.147L435.804 451.627L436.365 486.487L301.972 408.98L301.822 409.021Z" fill="black"/>
<path opacity="0.79" d="M435.708 451.682C435.708 451.682 329.852 402.219 320.221 397.684C313.86 394.692 310.741 400.976 312.246 407.478C313.614 413.16 319.182 419.021 319.182 419.021L301.877 409.035C301.793 408.984 301.716 408.924 301.644 408.858C301.582 408.827 301.53 408.78 301.494 408.721C301.383 408.613 301.291 408.489 301.22 408.352C301.16 408.3 301.113 408.235 301.083 408.161C300.937 407.926 300.822 407.674 300.741 407.41C300.627 407.126 300.536 406.833 300.468 406.535C300.385 406.207 300.331 405.88 300.276 405.524C300.229 405.323 300.201 405.117 300.194 404.91V404.404C300.194 404.036 300.194 403.639 300.194 403.243V380.977C300.169 378.641 300.597 376.322 301.452 374.147L435.708 451.682Z" fill="#263238"/>
<path d="M434.463 458.47H437.473C437.402 456.198 437.901 453.945 438.923 451.914C439.639 452.444 440.508 452.726 441.399 452.72C442.724 452.652 444.009 452.248 445.134 451.545C446.487 450.776 447.67 449.74 448.608 448.499C448.68 448.413 448.744 448.322 448.8 448.225C449.331 447.469 449.639 446.58 449.689 445.657L529.129 399.869L531.865 398.298L535.312 396.317C535.612 396.181 535.869 395.965 536.055 395.692C536.24 395.42 536.348 395.103 536.365 394.774V391.263C536.351 391.598 536.245 391.922 536.059 392.202C535.874 392.481 535.615 392.704 535.312 392.848L526.188 398.093L449.374 442.393C447.938 443.212 446.775 444.25 446.775 444.715V445.534C446.69 446.054 446.44 446.532 446.064 446.9C445.404 447.692 444.607 448.359 443.711 448.867C442.015 449.851 440.646 449.892 440.646 448.99V448.184C440.646 447.706 439.976 447.747 439.114 448.184L437.596 449.072C435.831 450.165 434.463 454.331 434.463 458.47Z" fill="#263238"/>
<path d="M437.473 458.47V480.723C437.473 481.037 437.473 481.351 437.473 481.651L437.541 482.403C437.535 482.425 437.535 482.449 437.541 482.471C437.815 480.081 440.099 477.95 442.083 476.829C443.189 476.134 444.457 475.738 445.763 475.682C446.766 475.669 447.74 476.024 448.499 476.679L448.759 476.529L449.292 476.215L526.105 431.915L530.524 429.375L531.783 428.637L535.504 426.492C535.748 426.339 535.951 426.128 536.094 425.878C536.238 425.628 536.317 425.346 536.324 425.058V428.569C536.314 428.841 536.239 429.106 536.106 429.344C535.973 429.581 535.785 429.784 535.558 429.935C535.12 430.194 534.655 430.44 534.19 430.727L533.328 431.232L531.851 432.079C531.523 432.284 531.222 432.462 530.934 432.612C530.647 432.762 530.483 432.885 530.291 432.981L529.156 433.65L468.13 468.811L448.649 480.04C447.281 480.859 446.146 481.146 446.064 480.723C446.059 480.673 446.059 480.622 446.064 480.572V479.794C446.064 478.81 444.696 478.81 443.013 479.794C442.389 480.065 441.843 480.486 441.422 481.02C441.002 481.554 440.721 482.184 440.605 482.854V483.81C440.625 484.023 440.595 484.238 440.517 484.437C440.438 484.637 440.314 484.815 440.154 484.957L439.703 485.217L438.745 485.763L437.555 486.46C437.324 486.613 437.048 486.683 436.771 486.658C436.495 486.633 436.236 486.515 436.036 486.323C435.974 486.293 435.922 486.245 435.886 486.187C435.776 486.084 435.683 485.964 435.612 485.831C435.559 485.773 435.513 485.709 435.475 485.64C435.329 485.406 435.214 485.153 435.133 484.889C435.018 484.61 434.926 484.322 434.86 484.028C434.778 483.687 434.723 483.359 434.668 483.004C434.62 482.802 434.592 482.596 434.586 482.389C434.586 482.225 434.586 482.075 434.586 481.884C434.586 481.692 434.586 481.119 434.586 480.723V458.47H437.473Z" fill="#263238"/>
<g opacity="0.6">
<path d="M434.463 458.47H437.473C437.402 456.198 437.901 453.945 438.923 451.914C439.639 452.444 440.508 452.726 441.399 452.72C442.724 452.652 444.009 452.248 445.134 451.545C446.487 450.776 447.67 449.74 448.608 448.499C448.68 448.413 448.744 448.322 448.8 448.225C449.331 447.469 449.639 446.58 449.689 445.657L529.129 399.869L531.865 398.298L535.312 396.317C535.612 396.181 535.869 395.965 536.055 395.692C536.24 395.42 536.348 395.103 536.365 394.774V391.263C536.351 391.598 536.245 391.922 536.059 392.202C535.874 392.481 535.615 392.704 535.312 392.848L526.188 398.093L449.374 442.393C447.938 443.212 446.775 444.25 446.775 444.715V445.534C446.69 446.054 446.44 446.532 446.064 446.9C445.404 447.692 444.607 448.359 443.711 448.867C442.015 449.851 440.646 449.892 440.646 448.99V448.184C440.646 447.706 439.976 447.747 439.114 448.184L437.596 449.072C435.831 450.165 434.463 454.331 434.463 458.47Z" fill="black"/>
<path d="M437.473 458.47V480.723C437.473 481.037 437.473 481.351 437.473 481.651L437.541 482.403C437.535 482.425 437.535 482.449 437.541 482.471C437.815 480.081 440.099 477.95 442.083 476.829C443.189 476.134 444.457 475.738 445.763 475.682C446.766 475.669 447.74 476.024 448.499 476.679L448.759 476.529L449.292 476.215L526.105 431.915L530.524 429.375L531.783 428.637L535.504 426.492C535.748 426.339 535.951 426.128 536.094 425.878C536.238 425.628 536.317 425.346 536.324 425.058V428.569C536.314 428.841 536.239 429.106 536.106 429.344C535.973 429.581 535.785 429.784 535.558 429.935C535.121 430.194 534.655 430.44 534.19 430.727L533.328 431.232L531.851 432.079C531.523 432.284 531.222 432.462 530.934 432.612C530.647 432.762 530.483 432.885 530.292 432.981L529.156 433.65L468.13 468.811L448.649 480.04C447.281 480.859 446.146 481.146 446.064 480.723C446.059 480.673 446.059 480.622 446.064 480.572V479.794C446.064 478.81 444.696 478.81 443.013 479.794C442.389 480.065 441.843 480.486 441.422 481.02C441.002 481.554 440.721 482.184 440.605 482.854V483.81C440.626 484.023 440.595 484.238 440.517 484.437C440.438 484.637 440.314 484.815 440.154 484.957L439.703 485.217L438.745 485.763L437.555 486.46C437.324 486.613 437.048 486.683 436.772 486.658C436.495 486.633 436.236 486.515 436.036 486.323C435.974 486.293 435.922 486.245 435.886 486.187C435.776 486.084 435.683 485.964 435.612 485.831C435.559 485.773 435.513 485.709 435.475 485.64C435.329 485.406 435.214 485.153 435.133 484.889C435.018 484.61 434.926 484.322 434.86 484.028C434.778 483.687 434.723 483.359 434.668 483.004C434.62 482.802 434.592 482.596 434.586 482.389C434.586 482.225 434.586 482.075 434.586 481.884C434.586 481.692 434.586 481.119 434.586 480.723V458.47H437.473Z" fill="black"/>
</g>
<path d="M301.302 374.188L429.046 447.843L525.599 392.179C525.915 392.073 526.189 391.871 526.383 391.602C526.578 391.332 526.682 391.008 526.682 390.676C526.682 390.344 526.578 390.02 526.383 389.75C526.189 389.481 525.915 389.279 525.599 389.173L399.196 316.284L314.38 365.214L312.287 366.43C312.004 366.735 311.826 367.123 311.781 367.536V368.356C311.781 369.257 310.413 370.773 308.73 371.743C308.645 371.8 308.553 371.846 308.457 371.88L305.639 370.254L304.271 371.019L304.079 371.115L303.094 371.689C302.256 372.321 301.631 373.193 301.302 374.188Z" fill="#263238"/>
<path d="M518.472 392.725L514.628 390.676L518.13 389.843C518.466 390.235 518.679 390.719 518.739 391.232C518.8 391.745 518.707 392.265 518.472 392.725Z" fill="#E0E0E0"/>
<g opacity="0.5" style="mix-blend-mode:multiply">
<path d="M518.472 392.725L514.628 390.676L518.13 389.843C518.466 390.235 518.679 390.719 518.739 391.232C518.8 391.745 518.707 392.265 518.472 392.725Z" fill="#E0E0E0"/>
</g>
<path d="M416.597 443.95C417.807 444.563 419.145 444.883 420.503 444.883C421.86 444.883 423.198 444.563 424.408 443.95L512.152 393.408L380.824 310.505L377.746 308.729L290.016 366.429C287.868 367.672 287.868 369.694 290.016 370.937L416.597 443.95Z" fill="#263238"/>
<path d="M449.538 341.186L515.832 386.045L480.141 358.725L499.949 347.305L522.986 360.624V384.378C522.986 386.4 520.729 389.255 519.908 388.791C518.39 389.157 516.914 389.679 515.503 390.348C513.202 391.654 511.067 393.232 509.142 395.047L438.841 347.333L449.538 341.186Z" fill="#263238"/>
<path opacity="0.2" d="M449.538 341.186L515.832 386.045L480.141 358.725L499.949 347.305L522.986 360.624V384.378C522.986 386.4 520.729 389.255 519.908 388.791C518.39 389.157 516.914 389.679 515.503 390.348C513.202 391.654 511.067 393.232 509.142 395.047L438.841 347.333L449.538 341.186Z" fill="black"/>
<path d="M420.496 414.294V441.723C421.405 441.744 422.304 441.532 423.109 441.109L432.685 435.563L506.01 393.299V364.968L420.496 414.294Z" fill="white"/>
<path d="M292.191 342.866V365.637C292.241 366.539 292.503 367.417 292.954 368.199C293.405 368.982 294.034 369.649 294.79 370.145L408.334 435.576L417.91 441.122C418.71 441.544 419.605 441.755 420.51 441.737V416.438L292.191 342.866Z" fill="#F0F0F0"/>
<path d="M506.051 393.299C506.118 392.262 506.499 391.271 507.145 390.457C508.08 389.213 509.263 388.175 510.62 387.411C511.749 386.708 513.039 386.304 514.368 386.236C515.23 386.149 516.096 386.351 516.83 386.81V358.752L506.064 364.968L506.051 393.299Z" fill="#455A64"/>
<path d="M510.346 387.575C509.105 388.324 508.019 389.302 507.145 390.457C506.499 391.271 506.118 392.262 506.051 393.299V365.979H510.332L510.346 387.575Z" fill="#F5F5F5"/>
<path d="M380.81 285.712L512.138 361.457V363.206C512.138 364.189 513.506 364.572 515.189 363.574C516.871 362.577 518.267 361.375 518.267 359.695L518.431 358.028L384.6 280.877L384.052 280.562C383.915 280.814 383.84 281.095 383.833 281.382V282.188C383.847 283.158 382.493 284.729 380.81 285.712Z" fill="#263238"/>
<path opacity="0.2" d="M380.81 285.712L512.138 361.457V363.206C512.138 364.189 513.506 364.572 515.189 363.574C516.871 362.577 518.267 361.375 518.267 359.695L518.431 358.028L384.6 280.877L384.052 280.562C383.915 280.814 383.84 281.095 383.833 281.382V282.188C383.847 283.158 382.493 284.729 380.81 285.712Z" fill="black"/>
<path d="M424.408 412.04L510.264 362.577C511.358 362.003 512.357 361.539 512.767 361.757L512.207 361.457L380.879 285.712L379.333 284.838C378.645 284.634 377.921 284.584 377.212 284.69C376.503 284.796 375.826 285.056 375.229 285.453L290.016 334.533C287.868 335.776 287.868 337.811 290.016 339.041L416.624 412.04C417.831 412.649 419.164 412.966 420.516 412.966C421.868 412.966 423.201 412.649 424.408 412.04Z" fill="#263238"/>
<path d="M384.066 280.563L384.613 280.877L518.472 358.029C518.54 357.886 518.638 357.76 518.759 357.66L519.211 357.414L520.168 356.854L521.358 356.157C521.59 356.006 521.866 355.938 522.141 355.963C522.417 355.987 522.676 356.104 522.877 356.294C522.933 356.332 522.984 356.378 523.027 356.43C523.186 356.6 523.323 356.788 523.438 356.99C523.579 357.228 523.693 357.48 523.78 357.742C523.887 358.028 523.979 358.32 524.053 358.616C524.122 358.944 524.19 359.272 524.245 359.627C524.287 359.834 524.314 360.044 524.327 360.255V360.747C524.327 361.116 524.327 361.512 524.327 361.922V358.165C524.19 356.928 523.764 355.74 523.085 354.697C522.406 353.653 521.491 352.782 520.415 352.155L393.806 279.156C392.762 278.542 391.591 278.179 390.382 278.093C389.174 278.008 387.963 278.203 386.843 278.664L385.242 279.593L384.572 279.989C384.352 280.128 384.177 280.327 384.066 280.563Z" fill="#263238"/>
<path d="M424.408 443.95L429.702 440.89L509.142 395.088C509.212 394.052 509.593 393.062 510.237 392.247C511.176 391.006 512.358 389.97 513.711 389.201C514.839 388.508 516.123 388.109 517.446 388.039C518.339 388.021 519.212 388.305 519.922 388.845C520.943 386.809 521.441 384.551 521.372 382.275H524.382C524.382 386.373 523.014 390.58 521.331 391.55L519.813 392.438C518.951 392.93 518.28 392.957 518.28 392.438V391.632C518.28 390.73 516.912 390.771 515.202 391.741C513.492 392.711 512.152 394.241 512.152 395.143V395.949C512.152 396.413 510.989 397.451 509.553 398.284L432.726 442.584L424.408 447.378C423.204 448 421.865 448.315 420.51 448.294V444.824C421.863 444.87 423.205 444.569 424.408 443.95Z" fill="#263238"/>
<path opacity="0.4" d="M424.408 443.95L429.702 440.89L509.142 395.088C509.212 394.052 509.593 393.062 510.237 392.247C511.176 391.006 512.358 389.97 513.711 389.201C514.839 388.508 516.123 388.109 517.446 388.039C518.339 388.021 519.212 388.305 519.922 388.845C520.943 386.809 521.441 384.551 521.372 382.275H524.382C524.382 386.373 523.014 390.58 521.331 391.55L519.813 392.438C518.951 392.93 518.28 392.957 518.28 392.438V391.632C518.28 390.73 516.912 390.771 515.202 391.741C513.492 392.711 512.152 394.241 512.152 395.143V395.949C512.152 396.413 510.989 397.451 509.553 398.284L432.726 442.584L424.408 447.378C423.204 448 421.865 448.315 420.51 448.294V444.824C421.863 444.87 423.205 444.569 424.408 443.95Z" fill="black"/>
<path d="M424.381 412.054L429.675 408.994L490.702 373.833L510.264 362.577C511.632 361.771 512.781 361.484 512.863 361.908V362.796C512.863 363.766 514.231 363.766 515.914 362.796C516.539 362.524 517.087 362.1 517.508 361.564C517.928 361.027 518.208 360.394 518.322 359.722V358.766C518.301 358.553 518.332 358.338 518.41 358.139C518.489 357.939 518.613 357.761 518.773 357.619L519.224 357.373L520.182 356.813L521.372 356.116C521.604 355.965 521.88 355.897 522.155 355.921C522.431 355.946 522.69 356.063 522.891 356.253C522.947 356.291 522.998 356.337 523.041 356.389C523.147 356.5 523.239 356.624 523.315 356.758C523.367 356.817 523.413 356.881 523.452 356.949C523.593 357.187 523.707 357.439 523.794 357.701C523.901 357.987 523.992 358.279 524.067 358.575C524.136 358.903 524.204 359.231 524.259 359.586C524.3 359.793 524.328 360.003 524.341 360.214V360.706C524.341 361.075 524.341 361.471 524.341 361.881V382.207H521.331V361.99C521.331 361.676 521.331 361.348 521.331 361.047L521.263 360.296C520.989 362.687 518.705 364.818 516.707 365.938C515.608 366.636 514.343 367.032 513.041 367.085C512.038 367.098 511.064 366.743 510.305 366.088L510.045 366.238L509.512 366.552L432.685 410.852L424.367 415.646C423.178 416.253 421.858 416.558 420.523 416.534V413.065C421.874 413.055 423.2 412.708 424.381 412.054Z" fill="#263238"/>
<path opacity="0.4" d="M424.381 412.054L429.675 408.994L490.702 373.833L510.264 362.577C511.632 361.771 512.781 361.484 512.863 361.908V362.796C512.863 363.766 514.231 363.766 515.914 362.796C516.539 362.524 517.087 362.1 517.508 361.564C517.928 361.027 518.208 360.394 518.322 359.722V358.766C518.301 358.553 518.332 358.338 518.41 358.139C518.489 357.939 518.613 357.761 518.773 357.619L519.224 357.373L520.182 356.813L521.372 356.116C521.604 355.965 521.88 355.897 522.155 355.921C522.431 355.946 522.69 356.063 522.891 356.253C522.947 356.291 522.998 356.337 523.041 356.389C523.147 356.5 523.239 356.624 523.315 356.758C523.367 356.817 523.413 356.881 523.452 356.949C523.593 357.187 523.707 357.439 523.794 357.701C523.901 357.987 523.992 358.279 524.067 358.575C524.136 358.903 524.204 359.231 524.259 359.586C524.3 359.793 524.328 360.003 524.341 360.214V360.706C524.341 361.075 524.341 361.471 524.341 361.881V382.207H521.331V361.99C521.331 361.676 521.331 361.348 521.331 361.047L521.263 360.296C520.989 362.687 518.705 364.818 516.707 365.938C515.608 366.636 514.343 367.032 513.041 367.085C512.038 367.098 511.064 366.743 510.305 366.088L510.045 366.238L509.512 366.552L432.685 410.852L424.367 415.646C423.178 416.253 421.858 416.558 420.523 416.534V413.065C421.874 413.055 423.2 412.708 424.381 412.054Z" fill="black"/>
<path d="M288.388 336.746V340.27C288.43 340.744 288.594 341.198 288.865 341.588C289.136 341.979 289.505 342.292 289.934 342.497L408.239 410.688L416.542 415.482C417.742 416.102 419.077 416.416 420.427 416.398V412.928C419.069 412.958 417.727 412.638 416.529 411.999L411.248 408.953L290.016 339.041C289.556 338.85 289.16 338.533 288.872 338.127C288.584 337.721 288.416 337.243 288.388 336.746Z" fill="#263238"/>
<path opacity="0.2" d="M288.388 336.746V340.27C288.43 340.744 288.594 341.198 288.865 341.588C289.136 341.979 289.505 342.292 289.934 342.497L408.239 410.688L416.542 415.482C417.742 416.102 419.077 416.416 420.427 416.398V412.928C419.069 412.958 417.727 412.638 416.529 411.999L411.248 408.953L290.016 339.041C289.556 338.85 289.16 338.533 288.872 338.127C288.584 337.721 288.416 337.243 288.388 336.746Z" fill="black"/>
<path d="M288.388 368.628V372.153C288.43 372.626 288.594 373.08 288.865 373.471C289.136 373.861 289.505 374.174 289.934 374.379L408.293 442.584L416.597 447.378C417.797 447.998 419.131 448.312 420.482 448.294V444.824C419.124 444.854 417.781 444.534 416.583 443.895L411.303 440.849L290.016 370.923C289.556 370.732 289.16 370.415 288.872 370.009C288.584 369.603 288.416 369.125 288.388 368.628Z" fill="#263238"/>
<path opacity="0.2" d="M288.388 368.628V372.153C288.43 372.626 288.594 373.08 288.865 373.471C289.136 373.861 289.505 374.174 289.934 374.379L408.293 442.584L416.597 447.378C417.797 447.998 419.131 448.312 420.482 448.294V444.824C419.124 444.854 417.781 444.534 416.583 443.895L411.303 440.849L290.016 370.923C289.556 370.732 289.16 370.415 288.872 370.009C288.584 369.603 288.416 369.125 288.388 368.628Z" fill="black"/>
<path d="M343.026 244.691L330.468 267.039L348.772 276.765L362.096 256.958L343.026 244.691Z" fill="#FFA8A7"/>
<path d="M387.582 194.354C380.605 193.166 370.044 192.852 363.177 204.613C356.309 216.374 341.508 245.402 341.508 245.402C341.508 245.402 350.153 256.575 362.67 258.611L383.122 226.209L387.582 194.354Z" fill="#263238"/>
<path d="M371.097 468.046H355.475V494.751H371.097V468.046Z" fill="#FFA8A7"/>
<path d="M325.871 461.544L310.249 462.077L309.469 433.814L325.078 433.281L325.871 461.544Z" fill="#FFA8A7"/>
<path d="M355.475 487.047V484.821C353.984 485.463 350.509 498.699 344.312 504.341C339.387 508.835 332.67 514.012 330.96 519.012C329.182 524.216 340.317 527.098 344.914 526.279C350.263 525.336 359.538 521.58 361.863 518.083C364.189 514.586 365.283 509.463 367.171 506.909C369.059 504.354 373.423 501.445 374.449 498.535C375.01 496.91 374.34 493.358 373.56 490.339C372.835 487.607 372.041 484.547 371.097 484.807V486.501C369.962 487.757 366.829 489.001 363.286 489.137C361.002 489.246 355.461 488.796 355.475 487.047Z" fill="#263238"/>
<path d="M310.085 457.268C309.277 457.268 308.621 458.443 306.829 460.369C304.155 463.066 301.048 465.296 297.636 466.967C291.781 469.904 280.44 474.398 275.269 476.734C272.054 478.182 272.205 482.061 275.529 484.274C278.853 486.487 286.87 488.072 296.514 485.913C301.753 484.739 308.593 479.903 312.93 480.162C317.267 480.422 325.351 480.367 328.539 478.168C331.726 475.969 330.454 471.338 329.551 467.24C328.566 462.842 327.157 456.107 325.693 456.408V457.774C323.819 460.615 314.257 461.776 310.126 459.686L310.085 457.268Z" fill="#263238"/>
<path d="M434.025 305.643C437.445 329.752 432.835 334.329 409.894 357.469C397.582 369.886 377.677 388.094 377.677 388.094C377.677 388.094 377.965 395.799 378.115 413.065C378.266 428.268 371.904 477.745 371.904 477.745C371.904 477.745 361.535 482.102 354.421 477.581C354.421 477.581 351.207 440.767 349.469 421.575C347.116 395.621 345.885 382.535 347.212 376.948C348.389 372.017 371.74 342.566 377.13 334.315L327.499 363.11C328.461 370.406 328.946 377.757 328.949 385.116C328.402 405.757 325.858 446.983 325.858 446.983C325.858 446.983 314.503 452.05 308.867 447.679C308.867 447.679 294.571 357.523 294.571 350.12C294.571 338.877 343.464 305.315 352.725 297.501C358.006 293.048 363.888 288.226 363.888 288.226L434.025 305.643Z" fill="#455A64"/>
<path d="M377.13 334.328C371.91 330.108 367.981 324.509 365.789 318.168C366.063 322.305 366.653 326.415 367.554 330.462C368.922 335.817 327.499 363.11 327.499 363.11L377.13 334.328Z" fill="#37474F"/>
<path d="M404.714 151.236C407.509 139.33 400.108 127.416 388.184 124.625C376.26 121.835 364.328 129.225 361.534 141.131C358.739 153.038 366.14 164.952 378.064 167.743C389.988 170.533 401.92 163.143 404.714 151.236Z" fill="#263238"/>
<path d="M429.716 207.769C429.716 207.769 435.188 212.249 435.188 226.401V256.958L434.408 308.347C423.464 320.245 374.216 315.737 362.028 289.783C362.028 289.783 362.123 235.539 362.123 223.382C362.123 211.225 368.963 195.447 387.568 194.354L411.672 199.955L429.716 207.769Z" fill="#263238"/>
<path d="M421.453 161.925C421.453 161.925 417.856 178.782 416.419 181.555C415.461 183.264 413.878 184.537 412.001 185.106L412.247 173.249L421.453 161.925Z" fill="#263238"/>
<path d="M416.939 137.775C418.188 137.634 419.453 137.779 420.637 138.198C421.822 138.617 422.896 139.299 423.779 140.192C426.734 143.211 425.079 152.664 421.399 161.925L414.627 162.704L416.939 137.775Z" fill="#263238"/>
<path d="M412.657 162.704C414.025 163.51 415.954 160.915 417.623 159.166C419.292 157.418 424.764 155.068 427.486 160.764C430.209 166.461 425.079 174.329 420.783 175.681C413.369 178.003 412.247 173.25 412.247 173.25L411.686 199.955C405.297 207.085 383.45 205.419 387.568 199.245V191.049C387.568 191.049 380.851 192.073 377.582 191.568C372.11 190.721 368.69 186.431 367.034 180.53C364.38 171.064 363.368 163.428 365.666 144.809C368.142 124.401 391.905 124.197 404.736 132.256C417.568 140.315 412.657 162.704 412.657 162.704Z" fill="#FFA8A7"/>
<path d="M393.765 167.376H392.616C390.61 167.376 388.685 166.58 387.267 165.164C385.848 163.747 385.051 161.825 385.051 159.822C385.051 157.819 385.848 155.897 387.267 154.481C388.685 153.064 390.61 152.268 392.616 152.268H393.779C395.785 152.268 397.709 153.064 399.128 154.481C400.547 155.897 401.344 157.819 401.344 159.822C401.344 161.825 400.547 163.747 399.128 165.164C397.709 166.58 395.785 167.376 393.779 167.376H393.765ZM392.616 153.538C390.947 153.538 389.346 154.2 388.166 155.379C386.986 156.557 386.323 158.156 386.323 159.822C386.323 161.489 386.986 163.087 388.166 164.265C389.346 165.444 390.947 166.106 392.616 166.106H393.779C395.448 166.106 397.048 165.444 398.228 164.265C399.409 163.087 400.072 161.489 400.072 159.822C400.072 158.156 399.409 156.557 398.228 155.379C397.048 154.2 395.448 153.538 393.779 153.538H392.616Z" fill="#263238"/>
<path d="M370.728 167.376H369.565C367.559 167.376 365.635 166.58 364.216 165.164C362.797 163.747 362 161.825 362 159.822C362 157.819 362.797 155.897 364.216 154.481C365.635 153.064 367.559 152.268 369.565 152.268H370.728C372.734 152.268 374.659 153.064 376.077 154.481C377.496 155.897 378.293 157.819 378.293 159.822C378.293 161.825 377.496 163.747 376.077 165.164C374.659 166.58 372.734 167.376 370.728 167.376ZM369.565 153.538C367.896 153.538 366.296 154.2 365.115 155.379C363.935 156.557 363.272 158.156 363.272 159.822C363.272 161.489 363.935 163.087 365.115 164.265C366.296 165.444 367.896 166.106 369.565 166.106H370.728C372.397 166.106 373.998 165.444 375.178 164.265C376.358 163.087 377.021 161.489 377.021 159.822C377.021 158.156 376.358 156.557 375.178 155.379C373.998 154.2 372.397 153.538 370.728 153.538H369.565Z" fill="#263238"/>
<path d="M385.133 158.333C384.671 157.707 384.07 157.197 383.377 156.844C382.683 156.49 381.917 156.303 381.138 156.298C380.49 156.232 379.836 156.322 379.229 156.56C378.622 156.797 378.081 157.176 377.65 157.664L376.638 156.899C377.192 156.245 377.898 155.737 378.695 155.42C379.492 155.103 380.354 154.987 381.207 155.082C382.193 155.092 383.163 155.336 384.036 155.794C384.909 156.253 385.66 156.912 386.227 157.718L385.133 158.333Z" fill="#263238"/>
<path d="M416.72 158.278H400.632V159.549H416.72V158.278Z" fill="#263238"/>
<path d="M412.657 164.985C413.341 164.985 415.927 160.696 417.623 159.166C419.962 157.035 416.939 137.775 416.939 137.775C416.939 137.775 419.196 132.98 414.682 128.035C411.481 124.511 406.118 124.115 396.966 122.68C392.165 121.929 384.887 120.577 380.085 119.689C374.367 118.623 369.62 117.503 365.584 121.055C364 122.426 362.88 124.253 362.378 126.286C361.876 128.319 362.016 130.457 362.78 132.406C363.938 134.838 365.999 136.724 368.525 137.665C368.525 137.665 371.015 139.878 379.702 140.93C388.389 141.982 401.918 140.739 403.765 140.479C406.282 140.138 406.816 142.569 408.184 149.235C409.374 155.041 410.4 164.944 412.657 164.985Z" fill="#263238"/>
<path d="M416.925 139.332L425.133 134.919C424.87 134.369 424.499 133.876 424.04 133.473C423.582 133.069 423.046 132.762 422.466 132.571C421.886 132.38 421.273 132.307 420.664 132.359C420.055 132.41 419.462 132.584 418.923 132.87C417.825 133.488 417.007 134.502 416.635 135.704C416.264 136.906 416.368 138.204 416.925 139.332Z" fill="#263238"/>
<path d="M387.582 191.117C387.582 191.117 399.757 188.672 403.998 186.418C406.5 185.113 408.55 183.085 409.88 180.599C409.236 183.075 408.101 185.398 406.542 187.429C403.423 191.404 387.568 194.327 387.568 194.327L387.582 191.117Z" fill="#F28F8F"/>
<path d="M390.509 159.672C390.528 160.151 390.688 160.615 390.969 161.004C391.25 161.394 391.639 161.692 392.089 161.863C392.538 162.033 393.028 162.067 393.497 161.961C393.966 161.855 394.393 161.613 394.725 161.267C395.058 160.92 395.28 160.483 395.366 160.011C395.451 159.538 395.396 159.051 395.206 158.61C395.016 158.169 394.7 157.794 394.298 157.531C393.896 157.268 393.425 157.129 392.944 157.131C392.617 157.138 392.295 157.209 391.996 157.341C391.696 157.472 391.426 157.662 391.2 157.898C390.973 158.133 390.796 158.412 390.678 158.716C390.559 159.02 390.502 159.345 390.509 159.672Z" fill="#263238"/>
<path d="M394.422 149.591L399.648 152.459C400 151.749 400.07 150.932 399.844 150.172C399.618 149.412 399.113 148.765 398.43 148.361C398.088 148.172 397.71 148.054 397.321 148.014C396.932 147.973 396.539 148.012 396.164 148.126C395.79 148.241 395.443 148.43 395.144 148.681C394.844 148.933 394.599 149.242 394.422 149.591Z" fill="#263238"/>
<path d="M388.69 176.487L383.122 178.577C383.242 178.951 383.436 179.296 383.693 179.592C383.95 179.889 384.264 180.13 384.616 180.303C384.969 180.475 385.353 180.574 385.745 180.595C386.137 180.615 386.529 180.556 386.898 180.421C387.648 180.125 388.254 179.549 388.588 178.815C388.923 178.082 388.959 177.247 388.69 176.487Z" fill="#F28F8F"/>
<path d="M368.129 151.722L372.889 148.074C372.668 147.756 372.384 147.486 372.055 147.28C371.726 147.074 371.358 146.937 370.975 146.877C370.591 146.817 370.2 146.836 369.823 146.931C369.447 147.026 369.094 147.197 368.785 147.432C368.145 147.926 367.719 148.647 367.596 149.446C367.474 150.245 367.665 151.06 368.129 151.722Z" fill="#263238"/>
<path d="M370.222 158.975C370.241 159.455 370.4 159.918 370.681 160.308C370.962 160.697 371.352 160.996 371.801 161.166C372.251 161.336 372.74 161.37 373.209 161.264C373.678 161.158 374.105 160.917 374.438 160.57C374.77 160.223 374.993 159.786 375.078 159.314C375.164 158.841 375.108 158.354 374.918 157.913C374.728 157.472 374.413 157.097 374.01 156.834C373.608 156.571 373.138 156.432 372.657 156.434C372.33 156.441 372.007 156.513 371.708 156.644C371.409 156.776 371.138 156.965 370.912 157.201C370.686 157.437 370.509 157.715 370.39 158.019C370.272 158.324 370.215 158.648 370.222 158.975Z" fill="#263238"/>
<path d="M382.274 157.021L382 171.788L373.259 169.862L382.274 157.021Z" fill="#F28F8F"/>
<path d="M367.335 279.784V281.15C367.335 281.849 367.15 282.535 366.799 283.139C366.448 283.743 365.944 284.245 365.338 284.593L327.349 306.449C326.744 306.797 326.057 306.981 325.358 306.981C324.66 306.981 323.973 306.797 323.368 306.449L253.668 266.274C253.062 265.926 252.558 265.425 252.207 264.821C251.857 264.216 251.672 263.531 251.671 262.832V261.862L325.351 304.331L367.335 279.784Z" fill="#263238"/>
<path opacity="0.6" d="M367.335 279.784V281.15C367.335 281.849 367.15 282.535 366.799 283.139C366.448 283.743 365.944 284.245 365.338 284.593L327.349 306.449C326.744 306.797 326.057 306.981 325.358 306.981C324.66 306.981 323.973 306.797 323.368 306.449L253.668 266.274C253.062 265.926 252.558 265.425 252.207 264.821C251.857 264.216 251.672 263.531 251.671 262.832V261.862L325.351 304.331L367.335 279.784Z" fill="black"/>
<path d="M251.712 261.876L293.039 238.053C293.401 237.844 293.812 237.734 294.229 237.734C294.647 237.734 295.058 237.844 295.42 238.053L367.103 279.388C367.182 279.435 367.248 279.502 367.293 279.582C367.339 279.663 367.363 279.753 367.363 279.846C367.363 279.938 367.339 280.029 367.293 280.109C367.248 280.189 367.182 280.256 367.103 280.303L325.392 304.345L251.712 261.876Z" fill="#263238"/>
<path opacity="0.5" d="M251.712 261.876L293.039 238.053C293.401 237.844 293.812 237.734 294.229 237.734C294.647 237.734 295.058 237.844 295.42 238.053L367.103 279.388C367.182 279.435 367.248 279.502 367.293 279.582C367.339 279.663 367.363 279.753 367.363 279.846C367.363 279.938 367.339 280.029 367.293 280.109C367.248 280.189 367.182 280.256 367.103 280.303L325.392 304.345L251.712 261.876Z" fill="black"/>
<path d="M325.734 300.848L348.019 288.007L282.848 250.442L260.44 263.214L325.734 300.848Z" fill="#263238"/>
<path d="M336.692 265.14L336.282 265.373L325.351 271.67L305.926 260.469L305.529 260.237L316.856 253.707L336.692 265.14Z" fill="#263238"/>
<path d="M336.282 265.373L325.351 271.67L305.926 260.469L316.856 254.171L336.282 265.373Z" fill="#263238"/>
<path opacity="0.7" d="M325.351 304.345V306.995C324.655 306.994 323.971 306.811 323.368 306.462L253.668 266.288C253.062 265.94 252.558 265.439 252.207 264.834C251.857 264.23 251.672 263.544 251.671 262.846V261.876L325.351 304.345Z" fill="black"/>
<path d="M324.216 304.932C323.553 305.195 322.839 305.304 322.128 305.25C321.416 305.195 320.727 304.979 320.112 304.618L250.727 264.621C250.124 264.276 249.606 263.802 249.208 263.232C248.811 262.663 248.545 262.013 248.429 261.329L240.836 216.087C240.793 215.834 240.77 215.579 240.768 215.322C240.76 214.065 241.252 212.857 242.136 211.962L314.243 253.543C314.701 253.794 315.097 254.144 315.402 254.567C315.707 254.99 315.914 255.475 316.008 255.988L324.216 304.932Z" fill="#263238"/>
<path opacity="0.5" d="M324.216 304.932C323.553 305.195 322.839 305.304 322.128 305.25C321.416 305.195 320.727 304.979 320.112 304.618L250.727 264.621C250.124 264.276 249.606 263.802 249.208 263.232C248.811 262.663 248.545 262.013 248.429 261.329L240.836 216.087C240.793 215.834 240.77 215.579 240.768 215.322C240.76 214.065 241.252 212.857 242.136 211.962L314.243 253.543C314.701 253.794 315.097 254.144 315.402 254.567C315.707 254.99 315.914 255.475 316.008 255.988L324.216 304.932Z" fill="black"/>
<path d="M325.351 304.345L324.886 304.618C324.676 304.739 324.456 304.844 324.23 304.932L316.022 255.988C315.935 255.482 315.739 255 315.446 254.578C315.153 254.155 314.77 253.802 314.325 253.543L242.218 211.962C242.504 211.681 242.826 211.437 243.176 211.238L315.433 252.888C315.878 253.146 316.261 253.499 316.554 253.922C316.847 254.344 317.044 254.826 317.13 255.333L325.351 304.345Z" fill="#E0E0E0"/>
<path d="M285.146 263.173C284.64 260.154 281.507 256.125 278.155 254.199C274.804 252.273 272.492 253.147 273.012 256.179C273.532 259.212 276.651 263.228 280.002 265.168C283.354 267.107 285.666 266.206 285.146 263.173Z" fill="#263238"/>
<path d="M299.359 292.624C299.215 290.664 298.834 288.729 298.224 286.86C297.157 283.513 293.983 270.618 286.733 268.678C285.871 268.42 284.955 268.391 284.079 268.596C282.068 269.143 281.151 271.233 280.755 273.104C280.385 275.869 280.385 278.671 280.755 281.437C279.64 280.164 278.334 279.072 276.883 278.199C275.597 277.232 274.046 276.679 272.437 276.615C272.213 276.604 271.99 276.648 271.788 276.743C271.585 276.838 271.409 276.982 271.274 277.161C271.014 277.639 271.274 278.24 271.685 278.664C272.41 279.538 273.299 280.276 274.024 281.15C274.592 281.912 275.118 282.706 275.597 283.527C276.514 285.002 277.54 286.395 278.566 287.802C280.537 290.726 283.01 293.279 285.871 295.343C289.161 297.567 292.895 299.053 296.815 299.7C302.109 300.356 307.253 300.274 310.591 299.113L299.359 292.624Z" fill="#FFA8A7"/>
<path d="M428.266 208.165C423.382 205.651 416.241 215.609 418.512 226.018C420.783 236.427 431.973 273.022 431.973 273.022C431.973 273.022 381.426 277.53 377.13 278.063C374.134 278.418 370.783 276.902 368.006 275.987C364.23 274.73 360.413 273.856 356.692 272.49C356.045 272.193 355.339 272.043 354.627 272.053C354.269 272.068 353.926 272.201 353.652 272.431C353.377 272.66 353.186 272.974 353.108 273.323C353.09 273.75 353.2 274.173 353.423 274.539C354.616 276.969 356.41 279.057 358.635 280.604C359.713 281.24 360.738 281.961 361.699 282.762C362.287 283.349 363.587 284.975 363.067 285.863L342.985 297.405C342.985 297.405 347.609 301.422 364.353 296.736C370.389 295.159 376.279 293.071 381.959 290.494C381.959 290.494 441.522 292.966 452.288 289.715C456.091 288.554 457.459 285.863 454.887 273.623C451.946 259.444 443.506 233.586 441.59 226.756C437.391 211.962 436.392 212.304 428.266 208.165Z" fill="#FFA8A7"/>
<path d="M425.749 206.047C425.749 206.047 433.82 208.315 437.295 212.877C440.77 217.44 454.176 261.575 454.176 261.575C450.672 264.494 446.573 266.617 442.165 267.796C437.758 268.976 433.145 269.183 428.649 268.405C428.649 268.405 417.869 237.875 416.72 229.72C414.682 217.085 420.865 207.14 425.749 206.047Z" fill="#263238"/>
<path d="M382.192 235.662C381.535 232.247 383.669 230.403 386.966 231.564C388.711 232.28 390.263 233.395 391.499 234.818C392.734 236.241 393.618 237.934 394.08 239.76C394.736 243.216 382.835 239.05 382.192 235.662Z" fill="#263238"/>
<path d="M404.75 246.303L395.051 240.143C395.544 242.765 392 242.397 388.813 241.29C385.626 240.184 381.727 237.943 381.221 235.321L372.766 235.211C371.987 235.211 371.973 236.222 372.766 237.056C374.859 239.391 379.729 243.53 389.962 247.096C400.195 250.661 404.121 249.554 405.598 248.462C406.077 248.052 405.639 246.863 404.75 246.303Z" fill="#263238"/>
</g>
<defs>
<clipPath id="clip0_2035_3">
<rect width="684" height="683" fill="white"/>
</clipPath>
</defs>
</svg>
